<?xml version="1.0" encoding="UTF-8" standalone="no"?>
<!-- Created with Inkscape (http://www.inkscape.org/) -->

<svg
   xmlns:dc="http://purl.org/dc/elements/1.1/"
   xmlns:cc="http://creativecommons.org/ns#"
   xmlns:rdf="http://www.w3.org/1999/02/22-rdf-syntax-ns#"
   xmlns:svg="http://www.w3.org/2000/svg"
   xmlns="http://www.w3.org/2000/svg"
   xmlns:sodipodi="http://sodipodi.sourceforge.net/DTD/sodipodi-0.dtd"
   xmlns:inkscape="http://www.inkscape.org/namespaces/inkscape"
   width="11.288889mm"
   height="11.288889mm"
   viewBox="0 0 40 40"
   id="svg5328"
   version="1.1"
   inkscape:version="0.91 r13725"
   sodipodi:docname="node.svg">
  <defs
     id="defs5330" />
  <sodipodi:namedview
     id="base"
     pagecolor="#ffffff"
     bordercolor="#666666"
     borderopacity="1.0"
     inkscape:pageopacity="0.0"
     inkscape:pageshadow="2"
     inkscape:zoom="0.35"
     inkscape:cx="-37.142857"
     inkscape:cy="-37.142858"
     inkscape:document-units="px"
     inkscape:current-layer="layer1"
     showgrid="false"
     fit-margin-top="0"
     fit-margin-left="0"
     fit-margin-right="0"
     fit-margin-bottom="0"
     inkscape:window-width="1366"
     inkscape:window-height="705"
     inkscape:window-x="-8"
     inkscape:window-y="-8"
     inkscape:window-maximized="1" />
  <metadata
     id="metadata5333">
    <rdf:RDF>
      <cc:Work
         rdf:about="">
        <dc:format>image/svg+xml</dc:format>
        <dc:type
           rdf:resource="http://purl.org/dc/dcmitype/StillImage" />
        <dc:title></dc:title>
      </cc:Work>
    </rdf:RDF>
  </metadata>
  <g
     inkscape:label="Layer 1"
     inkscape:groupmode="layer"
     id="layer1"
     transform="translate(-1040,-978.07649)">
    <g
       id="surface54347"
       transform="matrix(1.25,0,0,1.25,1040,978.07649)">
      <path
         id="path5879"
         d="M 16,0 C 7.164063,0 0,7.164063 0,16 0,24.835938 7.164063,32 16,32 24.835938,32 32,24.835938 32,16 32,7.164063 24.835938,0 16,0"
         style="fill:#75dcf8;fill-opacity:1;fill-rule:nonzero;stroke:none"
         inkscape:connector-curvature="0" />
      <path
         id="path5881"
         d="m 21.785156,14.039063 c -0.714843,0.195312 -1.132812,0.929687 -0.9375,1.640625 l 0.07813,0.28125 c 0.191407,0.710937 0.929688,1.128906 1.640625,0.933593 0,0 4.238282,-1.359375 9.277344,-3.015625 -0.09766,-0.730468 -0.242187,-1.449218 -0.4375,-2.144531 -5.21875,1.234375 -9.621094,2.304688 -9.621094,2.304688"
         style="fill:#2e3d57;fill-opacity:1;fill-rule:nonzero;stroke:none"
         inkscape:connector-curvature="0" />
      <path
         id="path5883"
         d="m 11.074219,15.960938 0.07813,-0.277344 c 0.195312,-0.714844 -0.226563,-1.449219 -0.9375,-1.644531 0,0 -4.402344,-1.066407 -9.621094,-2.304688 -0.191406,0.695313 -0.339844,1.410156 -0.4375,2.144531 5.039063,1.65625 9.277344,3.015625 9.277344,3.015625 0.710937,0.195313 1.445312,-0.222656 1.640625,-0.933593"
         style="fill:#2e3d57;fill-opacity:1;fill-rule:nonzero;stroke:none"
         inkscape:connector-curvature="0" />
      <path
         id="path5885"
         d="m 16,22.988281 c -3.894531,0 -7.066406,-3.167968 -7.066406,-7.066406 0,-3.894531 3.171875,-7.0625 7.066406,-7.0625 3.894531,0 7.066406,3.167969 7.066406,7.0625 0,3.898438 -3.171875,7.066406 -7.066406,7.066406"
         style="fill:#ffffff;fill-opacity:1;fill-rule:nonzero;stroke:none"
         inkscape:connector-curvature="0" />
      <path
         id="path5887"
         d="m 16,22.988281 c -3.257812,0 -5.910156,-2.652343 -5.910156,-5.910156 0,-3.257812 2.652344,-5.90625 5.910156,-5.90625 3.257813,0 5.910156,2.648438 5.910156,5.90625 0,3.257813 -2.652343,5.910156 -5.910156,5.910156"
         style="fill:#e6e6e6;fill-opacity:1;fill-rule:nonzero;stroke:none"
         inkscape:connector-curvature="0" />
      <path
         id="path5889"
         d="m 16.082031,18.636719 -0.167968,0 c -0.769532,0 -1.394532,0.625 -1.394532,1.398437 L 13.160156,31.734375 C 14.082031,31.898438 15.027344,32 16,32 c 0.972656,0 1.917969,-0.101562 2.839844,-0.265625 L 17.480469,20.035156 c 0,-0.773437 -0.625,-1.398437 -1.398438,-1.398437"
         style="fill:#2e3d57;fill-opacity:1;fill-rule:nonzero;stroke:none"
         inkscape:connector-curvature="0" />
    </g>
  </g>
</svg>
