<?xml version="1.0" encoding="UTF-8" standalone="no"?>
<!-- Created with Inkscape (http://www.inkscape.org/) -->

<svg
   xmlns:dc="http://purl.org/dc/elements/1.1/"
   xmlns:cc="http://creativecommons.org/ns#"
   xmlns:rdf="http://www.w3.org/1999/02/22-rdf-syntax-ns#"
   xmlns:svg="http://www.w3.org/2000/svg"
   xmlns="http://www.w3.org/2000/svg"
   xmlns:sodipodi="http://sodipodi.sourceforge.net/DTD/sodipodi-0.dtd"
   xmlns:inkscape="http://www.inkscape.org/namespaces/inkscape"
   width="80"
   height="80"
   viewBox="0 0 80 80"
   id="svg5904"
   version="1.1"
   inkscape:version="0.91 r13725"
   sodipodi:docname="opentext.svg">
  <defs
     id="defs5906" />
  <sodipodi:namedview
     id="base"
     pagecolor="#ffffff"
     bordercolor="#666666"
     borderopacity="1.0"
     inkscape:pageopacity="0.0"
     inkscape:pageshadow="2"
     inkscape:zoom="3.959798"
     inkscape:cx="22.619254"
     inkscape:cy="28.591399"
     inkscape:document-units="px"
     inkscape:current-layer="layer1"
     showgrid="false"
     fit-margin-top="0"
     fit-margin-left="0"
     fit-margin-right="0"
     fit-margin-bottom="0"
     units="px"
     inkscape:window-width="1600"
     inkscape:window-height="1137"
     inkscape:window-x="-8"
     inkscape:window-y="-8"
     inkscape:window-maximized="1" />
  <metadata
     id="metadata5909">
    <rdf:RDF>
      <cc:Work
         rdf:about="">
        <dc:format>image/svg+xml</dc:format>
        <dc:type
           rdf:resource="http://purl.org/dc/dcmitype/StillImage" />
        <dc:title></dc:title>
      </cc:Work>
    </rdf:RDF>
  </metadata>
  <g
     inkscape:label="Layer 1"
     inkscape:groupmode="layer"
     id="layer1"
     transform="translate(-988.57143,-949.50506)">
    <g
       id="surface66445"
       transform="matrix(1.25,0,0,1.25,988.57143,949.50506)">
      <path
         id="path6455"
         d="M 64,32 C 64,49.671875 49.671875,64 32,64 14.328125,64 0,49.671875 0,32 0,14.328125 14.328125,0 32,0 49.671875,0 64,14.328125 64,32"
         style="fill:#75dcf8;fill-opacity:1;fill-rule:nonzero;stroke:none"
         inkscape:connector-curvature="0" />
      <path
         id="path6457"
         d="m 49.222656,18.285156 -24.433593,0 c -0.582032,0 -1.101563,-0.492187 -1.289063,-1.042968 l -0.960937,-2.699219 c -0.1875,-0.550781 -0.703125,-0.828125 -1.285157,-0.828125 l -9.613281,0 c -0.753906,0 -1.367187,0.304687 -1.367187,1.054687 l 0,35.515625 39.617187,0 0,-30.882812 c 0,-0.753906 0.08594,-1.117188 -0.667969,-1.117188"
         style="fill:#f59e00;fill-opacity:1;fill-rule:nonzero;stroke:none"
         inkscape:connector-curvature="0" />
      <path
         id="path6459"
         d="m 13.109375,36.519531 -2.835937,5.023438 0,8.742187 2.835937,-7.566406 z m 0,0"
         style="fill:#ca8c00;fill-opacity:1;fill-rule:nonzero;stroke:none"
         inkscape:connector-curvature="0" />
      <path
         id="path6461"
         d="m 47.21875,21.234375 -31.726562,0 c -1.316407,0 -2.382813,1.066406 -2.382813,2.386719 l 0,23.652344 c 0,1.3125 1.066406,2.382812 2.382813,2.382812 l 31.726562,0 c 1.316406,0 2.382813,-1.070312 2.382813,-2.382812 l 0,-23.652344 c 0,-1.320313 -1.066407,-2.386719 -2.382813,-2.386719"
         style="fill:#cccccc;fill-opacity:1;fill-rule:nonzero;stroke:none"
         inkscape:connector-curvature="0" />
      <path
         id="path6463"
         d="m 20.015625,24.273438 -6.90625,12.246093 0,6.199219 z m 0,0"
         style="fill:#b3b3b3;fill-opacity:1;fill-rule:nonzero;stroke:none"
         inkscape:connector-curvature="0" />
      <path
         id="path6465"
         d="m 49.261719,20.011719 -31.726563,0 c -1.316406,0 -2.382812,1.066406 -2.382812,2.382812 l 0,23.652344 c 0,1.316406 1.066406,2.382813 2.382812,2.382813 l 31.726563,0 c 1.316406,0 2.382812,-1.066407 2.382812,-2.382813 l 0,-23.652344 c 0,-1.316406 -1.066406,-2.382812 -2.382812,-2.382812"
         style="fill:#ffffff;fill-opacity:1;fill-rule:nonzero;stroke:none"
         inkscape:connector-curvature="0" />
      <path
         id="path6467"
         d="m 15.144531,37.285156 4.871094,-13.011718 -4.878906,8.652343 z m 0,0"
         style="fill:#e6e6e6;fill-opacity:1;fill-rule:nonzero;stroke:none"
         inkscape:connector-curvature="0" />
      <path
         id="path6469"
         d="m 57.34375,22.855469 -35.011719,0 c -1.027343,0 -1.949218,0.453125 -2.316406,1.417969 l -9.742187,26.011718 40.308593,0 0.101563,-0.699218 8.976562,-23.527344 c 0.613282,-1.617188 -0.585937,-3.203125 -2.316406,-3.203125"
         style="fill:#ffd151;fill-opacity:1;fill-rule:nonzero;stroke:none"
         inkscape:connector-curvature="0" />
    </g>
    <text
       xml:space="preserve"
       style="font-style:normal;font-variant:normal;font-weight:normal;font-stretch:normal;font-size:30px;line-height:125%;font-family:'KenPixel Nova';-inkscape-font-specification:'KenPixel Nova, Normal';text-align:start;letter-spacing:0px;word-spacing:0px;writing-mode:lr-tb;text-anchor:start;fill:#000000;fill-opacity:1;stroke:none;stroke-width:1px;stroke-linecap:butt;stroke-linejoin:miter;stroke-opacity:1"
       x="1482.3225"
       y="1000.9683"
       id="text5320"
       sodipodi:linespacing="125%"
       transform="matrix(1,0,-0.46630766,1,0,0)"><tspan
         sodipodi:role="line"
         id="tspan5322"
         x="1482.3225"
         y="1000.9683">txt</tspan></text>
  </g>
</svg>
