<?xml version="1.0" encoding="UTF-8" standalone="no"?>
<!-- Created with Inkscape (http://www.inkscape.org/) -->

<svg
   xmlns:dc="http://purl.org/dc/elements/1.1/"
   xmlns:cc="http://creativecommons.org/ns#"
   xmlns:rdf="http://www.w3.org/1999/02/22-rdf-syntax-ns#"
   xmlns:svg="http://www.w3.org/2000/svg"
   xmlns="http://www.w3.org/2000/svg"
   xmlns:sodipodi="http://sodipodi.sourceforge.net/DTD/sodipodi-0.dtd"
   xmlns:inkscape="http://www.inkscape.org/namespaces/inkscape"
   width="80"
   height="80"
   viewBox="0 0 80 80"
   id="svg8416"
   version="1.1"
   inkscape:version="0.91 r13725"
   sodipodi:docname="savetextas.svg">
  <defs
     id="defs8418" />
  <sodipodi:namedview
     id="base"
     pagecolor="#ffffff"
     bordercolor="#666666"
     borderopacity="1.0"
     inkscape:pageopacity="0.0"
     inkscape:pageshadow="2"
     inkscape:zoom="2.8"
     inkscape:cx="-26.071429"
     inkscape:cy="73.571429"
     inkscape:document-units="px"
     inkscape:current-layer="layer1"
     showgrid="false"
     fit-margin-top="0"
     fit-margin-left="0"
     fit-margin-right="0"
     fit-margin-bottom="0"
     units="px"
     inkscape:window-width="1600"
     inkscape:window-height="1137"
     inkscape:window-x="-8"
     inkscape:window-y="-8"
     inkscape:window-maximized="1" />
  <metadata
     id="metadata8421">
    <rdf:RDF>
      <cc:Work
         rdf:about="">
        <dc:format>image/svg+xml</dc:format>
        <dc:type
           rdf:resource="http://purl.org/dc/dcmitype/StillImage" />
        <dc:title></dc:title>
      </cc:Work>
    </rdf:RDF>
  </metadata>
  <g
     inkscape:label="Layer 1"
     inkscape:groupmode="layer"
     id="layer1"
     transform="translate(-1022.8571,-943.79078)">
    <path
       inkscape:connector-curvature="0"
       style="fill:#75dcf8;fill-opacity:1;fill-rule:nonzero;stroke:none"
       d="m 1102.8571,983.79078 c 0,22.08982 -17.9102,40.00002 -40,40.00002 -22.0898,0 -40,-17.9102 -40,-40.00002 0,-22.08984 17.9102,-40 40,-40 22.0898,0 40,17.91016 40,40"
       id="path8967" />
    <path
       inkscape:connector-curvature="0"
       style="fill:#2e3d57;fill-opacity:1;fill-rule:nonzero;stroke:none"
       d="m 1083.1257,1011.4275 -40.5372,0 c -1.2988,0 -2.3535,-1.0498 -2.3535,-2.3486 l 0,-42.31449 c 0,-1.29882 1.0547,-2.34863 2.3535,-2.34863 l 37.212,0 5.6787,3.0127 0,41.65042 c 0,1.2988 -1.0547,2.3486 -2.3535,2.3486"
       id="path8969" />
    <path
       inkscape:connector-curvature="0"
       style="fill:#19193a;fill-opacity:1;fill-rule:nonzero;stroke:none"
       d="m 1072.4616,981.15894 -24.1992,0 c -1.5528,0 -2.8125,-1.26464 -2.8125,-2.81738 l 0,-13.92578 29.8242,0 0,13.92578 c 0,1.55274 -1.2598,2.81738 -2.8125,2.81738"
       id="path8971" />
    <path
       inkscape:connector-curvature="0"
       style="fill:#e6e6e6;fill-opacity:1;fill-rule:nonzero;stroke:none"
       d="m 1072.779,981.23219 -17.8467,0 c -1.3818,0 -2.5,-1.11817 -2.5,-2.5 l 0,-14.6875 22.8467,0 0,14.6875 c 0,1.38183 -1.1231,2.5 -2.5,2.5"
       id="path8973" />
    <path
       inkscape:connector-curvature="0"
       style="fill:#19193a;fill-opacity:1;fill-rule:nonzero;stroke:none"
       d="m 1072.154,979.80152 -3.4375,0 c -0.6397,0 -1.1621,-0.52246 -1.1621,-1.16211 l 0,-11.20117 c 0,-0.64453 0.5224,-1.16699 1.1621,-1.16699 l 3.4375,0 c 0.6445,0 1.167,0.52246 1.167,1.16699 l 0,11.20117 c 0,0.63965 -0.5225,1.16211 -1.167,1.16211"
       id="path8975" />
    <path
       inkscape:connector-curvature="0"
       style="fill:#19193a;fill-opacity:1;fill-rule:nonzero;stroke:none"
       d="m 1080.0446,1011.4275 -34.375,0 0,-24.33594 c 0,-1.07422 0.8691,-1.94336 1.9434,-1.94336 l 30.4882,0 c 1.0743,0 1.9434,0.86914 1.9434,1.94336 z m 0,0"
       id="path8977" />
    <path
       inkscape:connector-curvature="0"
       style="fill:#ffffff;fill-opacity:1;fill-rule:nonzero;stroke:none"
       d="m 1046.446,1009.0203 0,-21.18167 c 0,-1.01074 0.8203,-1.82617 1.831,-1.82617 l 29.1602,0 c 1.0107,0 1.831,0.81543 1.831,1.82617 l 0,21.18167 c 0,1.0107 -0.8203,1.831 -1.831,1.831 l -29.1602,0 c -1.0107,0 -1.831,-0.8203 -1.831,-1.831"
       id="path8979" />
    <path
       inkscape:connector-curvature="0"
       style="fill:#f03f3a;fill-opacity:1;fill-rule:nonzero;stroke:none"
       d="m 1046.446,1009.0203 0,-3.4375 32.8222,0 0,3.4375 c 0,1.0107 -0.8203,1.831 -1.831,1.831 l -29.1602,0 c -1.0107,0 -1.831,-0.8203 -1.831,-1.831"
       id="path8981" />
    <path
       inkscape:connector-curvature="0"
       style="fill:#ee383f;fill-opacity:1;fill-rule:nonzero;stroke:none"
       d="m 1064.9128,974.17652 c 0,0 0.024,-0.32715 0.078,-0.90332 0.063,-0.56152 0.068,-1.41113 0.2246,-2.34863 0.2979,-1.87988 0.9473,-4.30664 2.1387,-6.00586 1.1767,-1.71875 2.7832,-2.57324 4.2138,-2.82227 0.3418,-0.1123 0.6934,-0.0928 0.9961,-0.10742 0.1709,-0.0146 0.3174,-0.0244 0.4444,-0.0293 0.2002,-0.0293 0.3271,0.0195 0.3222,0.01 l -0.1123,2.51465 c 0.9571,-1.03516 2.4854,-1.73828 4.2627,-2.13379 1.7774,-0.3418 3.7549,-0.28809 5.8399,0.18555 -1.2305,-4.00391 -4.1407,-8.28125 -9.5313,-10.72266 l -0.1123,2.51465 c 0,0 -0.2197,-0.0439 -0.6201,-0.0195 -0.2441,0.01 -0.5371,0.0244 -0.8691,0.0391 -0.6055,0.0293 -1.2793,0.0439 -2.0264,0.23437 -0.7373,0.16602 -1.5527,0.28321 -2.3633,0.6543 -0.8301,0.32227 -1.6943,0.66895 -2.4853,1.23047 -0.4053,0.26367 -0.8252,0.52734 -1.2256,0.81543 -0.3565,0.33203 -0.7227,0.66406 -1.0889,1.00098 -0.7764,0.66406 -1.333,1.45996 -1.9092,2.25097 -2.2265,3.22754 -3.0224,6.73828 -3.4375,9.23828 -0.2002,1.25977 -0.2197,2.28516 -0.2978,3.01758 -0.054,0.72754 -0.088,1.14258 -0.088,1.14258 z m 0,0"
       id="path8991" />
    <text
       xml:space="preserve"
       style="font-style:normal;font-variant:normal;font-weight:normal;font-stretch:normal;font-size:30px;line-height:125%;font-family:'KenPixel Nova';-inkscape-font-specification:'KenPixel Nova, Normal';text-align:start;letter-spacing:0px;word-spacing:0px;writing-mode:lr-tb;text-anchor:start;fill:#000000;fill-opacity:1;stroke:none;stroke-width:1px;stroke-linecap:butt;stroke-linejoin:miter;stroke-opacity:1"
       x="1048.7946"
       y="1001.6479"
       id="text4762"
       sodipodi:linespacing="125%"><tspan
         sodipodi:role="line"
         id="tspan4764"
         x="1048.7946"
         y="1001.6479">txt</tspan></text>
  </g>
</svg>
