<?xml version="1.0" encoding="UTF-8" standalone="no"?>
<!-- Created with Inkscape (http://www.inkscape.org/) -->

<svg
   xmlns:dc="http://purl.org/dc/elements/1.1/"
   xmlns:cc="http://creativecommons.org/ns#"
   xmlns:rdf="http://www.w3.org/1999/02/22-rdf-syntax-ns#"
   xmlns:svg="http://www.w3.org/2000/svg"
   xmlns="http://www.w3.org/2000/svg"
   xmlns:sodipodi="http://sodipodi.sourceforge.net/DTD/sodipodi-0.dtd"
   xmlns:inkscape="http://www.inkscape.org/namespaces/inkscape"
   width="80"
   height="80"
   viewBox="0 0 80 80"
   id="svg7677"
   version="1.1"
   inkscape:version="0.91 r13725"
   sodipodi:docname="saveall.svg">
  <defs
     id="defs7679">
    <clipPath
       id="clipPath8239"
       clipPathUnits="userSpaceOnUse">
      <path
         inkscape:connector-curvature="0"
         id="path8241"
         d="M 0,64 64,64 64,0 0,0 0,64 Z" />
    </clipPath>
  </defs>
  <sodipodi:namedview
     id="base"
     pagecolor="#ffffff"
     bordercolor="#666666"
     borderopacity="1.0"
     inkscape:pageopacity="0.0"
     inkscape:pageshadow="2"
     inkscape:zoom="0.35"
     inkscape:cx="-1155"
     inkscape:cy="482.8571"
     inkscape:document-units="px"
     inkscape:current-layer="layer1"
     showgrid="false"
     fit-margin-top="0"
     fit-margin-left="0"
     fit-margin-right="0"
     fit-margin-bottom="0"
     units="px"
     inkscape:window-width="1366"
     inkscape:window-height="705"
     inkscape:window-x="-8"
     inkscape:window-y="-8"
     inkscape:window-maximized="1" />
  <metadata
     id="metadata7682">
    <rdf:RDF>
      <cc:Work
         rdf:about="">
        <dc:format>image/svg+xml</dc:format>
        <dc:type
           rdf:resource="http://purl.org/dc/dcmitype/StillImage" />
        <dc:title></dc:title>
      </cc:Work>
    </rdf:RDF>
  </metadata>
  <g
     inkscape:label="Layer 1"
     inkscape:groupmode="layer"
     id="layer1"
     transform="translate(-1042.8571,-935.2193)">
    <g
       transform="matrix(1.25,0,0,-1.25,1042.8571,1015.2193)"
       inkscape:label="saveall"
       id="g8233">
      <g
         id="g8235">
        <g
           clip-path="url(#clipPath8239)"
           id="g8237">
          <g
             transform="translate(64,32)"
             id="g8243">
            <path
               inkscape:connector-curvature="0"
               id="path8245"
               style="fill:#77ddf9;fill-opacity:1;fill-rule:nonzero;stroke:none"
               d="m 0,0 c 0,-17.673 -14.327,-32 -32,-32 -17.673,0 -32,14.327 -32,32 0,17.673 14.327,32 32,32 C -14.327,32 0,17.673 0,0" />
          </g>
          <g
             transform="translate(51.7764,11.1335)"
             id="g8247">
            <path
               inkscape:connector-curvature="0"
               id="path8249"
               style="fill:#080b10;fill-opacity:1;fill-rule:nonzero;stroke:none"
               d="m 0,0 -26.89,0 c -0.861,0 -1.56,0.698 -1.56,1.56 l 0,28.066 c 0,0.862 0.699,1.56 1.56,1.56 l 24.683,0 3.767,-2.001 0,-27.625 C 1.56,0.698 0.861,0 0,0" />
          </g>
          <g
             transform="translate(44.7012,31.2133)"
             id="g8251">
            <path
               inkscape:connector-curvature="0"
               id="path8253"
               style="fill:#000000;fill-opacity:1;fill-rule:nonzero;stroke:none"
               d="m 0,0 -16.049,0 c -1.032,0 -1.868,0.836 -1.868,1.868 l 0,9.238 19.785,0 0,-9.238 C 1.868,0.836 1.032,0 0,0" />
          </g>
          <g
             transform="translate(44.913,31.1642)"
             id="g8255">
            <path
               inkscape:connector-curvature="0"
               id="path8257"
               style="fill:#616161;fill-opacity:1;fill-rule:nonzero;stroke:none"
               d="m 0,0 -11.839,0 c -0.915,0 -1.656,0.742 -1.656,1.656 l 0,9.745 15.151,0 0,-9.745 C 1.656,0.742 0.915,0 0,0" />
          </g>
          <g
             transform="translate(44.4996,32.1127)"
             id="g8259">
            <path
               inkscape:connector-curvature="0"
               id="path8261"
               style="fill:#000000;fill-opacity:1;fill-rule:nonzero;stroke:none"
               d="m 0,0 -2.28,0 c -0.427,0 -0.772,0.346 -0.772,0.772 l 0,7.429 c 0,0.427 0.345,0.772 0.772,0.772 l 2.28,0 c 0.427,0 0.772,-0.345 0.772,-0.772 l 0,-7.429 C 0.772,0.346 0.427,0 0,0" />
          </g>
          <g
             transform="translate(49.7322,11.1335)"
             id="g8263">
            <path
               inkscape:connector-curvature="0"
               id="path8265"
               style="fill:#000000;fill-opacity:1;fill-rule:nonzero;stroke:none"
               d="m 0,0 -22.801,0 0,16.144 c 0,0.711 0.576,1.288 1.288,1.288 l 20.225,0 C -0.577,17.432 0,16.855 0,16.144 L 0,0 Z" />
          </g>
          <g
             transform="translate(27.4458,12.7317)"
             id="g8267">
            <path
               inkscape:connector-curvature="0"
               id="path8269"
               style="fill:#ffffff;fill-opacity:1;fill-rule:nonzero;stroke:none"
               d="m 0,0 0,14.048 c 0,0.671 0.543,1.214 1.214,1.214 l 19.344,0 c 0.67,0 1.213,-0.543 1.213,-1.214 L 21.771,0 c 0,-0.67 -0.543,-1.214 -1.213,-1.214 l -19.344,0 C 0.543,-1.214 0,-0.67 0,0" />
          </g>
          <g
             transform="translate(27.4458,12.7317)"
             id="g8271">
            <path
               inkscape:connector-curvature="0"
               id="path8273"
               style="fill:#79201e;fill-opacity:1;fill-rule:nonzero;stroke:none"
               d="m 0,0 0,2.28 21.771,0 0,-2.28 c 0,-0.67 -0.543,-1.214 -1.213,-1.214 l -19.344,0 C 0.543,-1.214 0,-0.67 0,0" />
          </g>
          <path
             inkscape:connector-curvature="0"
             id="path8275"
             style="fill:#79201e;fill-opacity:1;fill-rule:nonzero;stroke:none"
             d="m 48.151,25.044 -19.638,0 0,0.48 19.638,0 0,-0.48 z" />
          <path
             inkscape:connector-curvature="0"
             id="path8277"
             style="fill:#79201e;fill-opacity:1;fill-rule:nonzero;stroke:none"
             d="m 48.151,22.446 -19.638,0 0,0.48 19.638,0 0,-0.48 z" />
          <path
             inkscape:connector-curvature="0"
             id="path8279"
             style="fill:#79201e;fill-opacity:1;fill-rule:nonzero;stroke:none"
             d="m 48.151,19.847 -19.638,0 0,0.48 19.638,0 0,-0.48 z" />
          <path
             inkscape:connector-curvature="0"
             id="path8281"
             style="fill:#79201e;fill-opacity:1;fill-rule:nonzero;stroke:none"
             d="m 48.151,17.248 -19.638,0 0,0.48 19.638,0 0,-0.48 z" />
          <g
             transform="translate(45.2908,16.2843)"
             id="g8283">
            <path
               inkscape:connector-curvature="0"
               id="path8285"
               style="fill:#1b2333;fill-opacity:1;fill-rule:nonzero;stroke:none"
               d="m 0,0 -26.89,0 c -0.861,0 -1.56,0.698 -1.56,1.56 l 0,28.066 c 0,0.862 0.699,1.56 1.56,1.56 l 24.683,0 3.767,-2.001 0,-27.625 C 1.56,0.698 0.861,0 0,0" />
          </g>
          <g
             transform="translate(38.2156,36.3641)"
             id="g8287">
            <path
               inkscape:connector-curvature="0"
               id="path8289"
               style="fill:#0a0a17;fill-opacity:1;fill-rule:nonzero;stroke:none"
               d="m 0,0 -16.049,0 c -1.032,0 -1.868,0.836 -1.868,1.868 l 0,9.238 19.785,0 0,-9.238 C 1.868,0.836 1.032,0 0,0" />
          </g>
          <g
             transform="translate(38.4274,36.3151)"
             id="g8291">
            <path
               inkscape:connector-curvature="0"
               id="path8293"
               style="fill:#c0c0c0;fill-opacity:1;fill-rule:nonzero;stroke:none"
               d="m 0,0 -11.839,0 c -0.915,0 -1.656,0.742 -1.656,1.656 l 0,9.745 15.151,0 0,-9.745 C 1.656,0.742 0.915,0 0,0" />
          </g>
          <g
             transform="translate(38.014,37.2635)"
             id="g8295">
            <path
               inkscape:connector-curvature="0"
               id="path8297"
               style="fill:#0a0a17;fill-opacity:1;fill-rule:nonzero;stroke:none"
               d="m 0,0 -2.28,0 c -0.427,0 -0.772,0.346 -0.772,0.772 l 0,7.429 c 0,0.427 0.345,0.772 0.772,0.772 l 2.28,0 c 0.427,0 0.772,-0.345 0.772,-0.772 l 0,-7.429 C 0.772,0.346 0.427,0 0,0" />
          </g>
          <g
             transform="translate(43.2465,16.2843)"
             id="g8299">
            <path
               inkscape:connector-curvature="0"
               id="path8301"
               style="fill:#0a0a17;fill-opacity:1;fill-rule:nonzero;stroke:none"
               d="m 0,0 -22.801,0 0,16.144 c 0,0.711 0.576,1.288 1.288,1.288 l 20.225,0 C -0.577,17.432 0,16.855 0,16.144 L 0,0 Z" />
          </g>
          <g
             transform="translate(20.9602,17.8825)"
             id="g8303">
            <path
               inkscape:connector-curvature="0"
               id="path8305"
               style="fill:#ffffff;fill-opacity:1;fill-rule:nonzero;stroke:none"
               d="m 0,0 0,14.048 c 0,0.671 0.543,1.214 1.214,1.214 l 19.344,0 c 0.67,0 1.213,-0.543 1.213,-1.214 L 21.771,0 c 0,-0.67 -0.543,-1.214 -1.213,-1.214 l -19.344,0 C 0.543,-1.214 0,-0.67 0,0" />
          </g>
          <g
             transform="translate(20.9602,17.8825)"
             id="g8307">
            <path
               inkscape:connector-curvature="0"
               id="path8309"
               style="fill:#cc3632;fill-opacity:1;fill-rule:nonzero;stroke:none"
               d="m 0,0 0,2.28 21.771,0 0,-2.28 c 0,-0.67 -0.543,-1.214 -1.213,-1.214 l -19.344,0 C 0.543,-1.214 0,-0.67 0,0" />
          </g>
          <path
             inkscape:connector-curvature="0"
             id="path8311"
             style="fill:#cc3632;fill-opacity:1;fill-rule:nonzero;stroke:none"
             d="m 41.665,30.195 -19.638,0 0,0.48 19.638,0 0,-0.48 z" />
          <path
             inkscape:connector-curvature="0"
             id="path8313"
             style="fill:#cc3632;fill-opacity:1;fill-rule:nonzero;stroke:none"
             d="m 41.665,27.596 -19.638,0 0,0.48 19.638,0 0,-0.48 z" />
          <path
             inkscape:connector-curvature="0"
             id="path8315"
             style="fill:#cc3632;fill-opacity:1;fill-rule:nonzero;stroke:none"
             d="m 41.665,24.998 -19.638,0 0,0.48 19.638,0 0,-0.48 z" />
          <path
             inkscape:connector-curvature="0"
             id="path8317"
             style="fill:#cc3632;fill-opacity:1;fill-rule:nonzero;stroke:none"
             d="m 41.665,22.399 -19.638,0 0,0.48 19.638,0 0,-0.48 z" />
          <g
             transform="translate(38.8052,21.4352)"
             id="g8319">
            <path
               inkscape:connector-curvature="0"
               id="path8321"
               style="fill:#2f3e59;fill-opacity:1;fill-rule:nonzero;stroke:none"
               d="m 0,0 -26.89,0 c -0.861,0 -1.56,0.698 -1.56,1.56 l 0,28.066 c 0,0.862 0.699,1.56 1.56,1.56 l 24.683,0 3.767,-2.001 0,-27.625 C 1.56,0.698 0.861,0 0,0" />
          </g>
          <g
             transform="translate(31.7299,41.5149)"
             id="g8323">
            <path
               inkscape:connector-curvature="0"
               id="path8325"
               style="fill:#1a1a3d;fill-opacity:1;fill-rule:nonzero;stroke:none"
               d="m 0,0 -16.049,0 c -1.032,0 -1.868,0.836 -1.868,1.868 l 0,9.238 19.785,0 0,-9.238 C 1.868,0.836 1.032,0 0,0" />
          </g>
          <g
             transform="translate(31.9418,41.4659)"
             id="g8327">
            <path
               inkscape:connector-curvature="0"
               id="path8329"
               style="fill:#e6e6e6;fill-opacity:1;fill-rule:nonzero;stroke:none"
               d="m 0,0 -11.839,0 c -0.915,0 -1.656,0.742 -1.656,1.656 l 0,9.745 15.151,0 0,-9.745 C 1.656,0.742 0.915,0 0,0" />
          </g>
          <g
             transform="translate(31.5284,42.4143)"
             id="g8331">
            <path
               inkscape:connector-curvature="0"
               id="path8333"
               style="fill:#1a1a3d;fill-opacity:1;fill-rule:nonzero;stroke:none"
               d="m 0,0 -2.28,0 c -0.427,0 -0.772,0.346 -0.772,0.772 l 0,7.429 c 0,0.427 0.345,0.772 0.772,0.772 l 2.28,0 c 0.427,0 0.772,-0.345 0.772,-0.772 l 0,-7.429 C 0.772,0.346 0.427,0 0,0" />
          </g>
          <g
             transform="translate(36.7609,21.4352)"
             id="g8335">
            <path
               inkscape:connector-curvature="0"
               id="path8337"
               style="fill:#1a1a3d;fill-opacity:1;fill-rule:nonzero;stroke:none"
               d="m 0,0 -22.801,0 0,16.144 c 0,0.711 0.576,1.288 1.288,1.288 l 20.225,0 C -0.577,17.432 0,16.855 0,16.144 L 0,0 Z" />
          </g>
          <g
             transform="translate(14.4746,23.0333)"
             id="g8339">
            <path
               inkscape:connector-curvature="0"
               id="path8341"
               style="fill:#ffffff;fill-opacity:1;fill-rule:nonzero;stroke:none"
               d="m 0,0 0,14.048 c 0,0.671 0.543,1.214 1.214,1.214 l 19.344,0 c 0.67,0 1.213,-0.543 1.213,-1.214 L 21.771,0 c 0,-0.67 -0.543,-1.214 -1.213,-1.214 l -19.344,0 C 0.543,-1.214 0,-0.67 0,0" />
          </g>
          <g
             transform="translate(14.4746,23.0333)"
             id="g8343">
            <path
               inkscape:connector-curvature="0"
               id="path8345"
               style="fill:#f2403b;fill-opacity:1;fill-rule:nonzero;stroke:none"
               d="m 0,0 0,2.28 21.771,0 0,-2.28 c 0,-0.67 -0.543,-1.214 -1.213,-1.214 l -19.344,0 C 0.543,-1.214 0,-0.67 0,0" />
          </g>
          <path
             inkscape:connector-curvature="0"
             id="path8347"
             style="fill:#f2403b;fill-opacity:1;fill-rule:nonzero;stroke:none"
             d="m 35.18,35.346 -19.638,0 0,0.48 19.638,0 0,-0.48 z" />
          <path
             inkscape:connector-curvature="0"
             id="path8349"
             style="fill:#f2403b;fill-opacity:1;fill-rule:nonzero;stroke:none"
             d="m 35.18,32.747 -19.638,0 0,0.48 19.638,0 0,-0.48 z" />
          <path
             inkscape:connector-curvature="0"
             id="path8351"
             style="fill:#f2403b;fill-opacity:1;fill-rule:nonzero;stroke:none"
             d="m 35.18,30.148 -19.638,0 0,0.48 19.638,0 0,-0.48 z" />
          <path
             inkscape:connector-curvature="0"
             id="path8353"
             style="fill:#f2403b;fill-opacity:1;fill-rule:nonzero;stroke:none"
             d="m 35.18,27.549 -19.638,0 0,0.48 19.638,0 0,-0.48 z" />
        </g>
      </g>
    </g>
  </g>
</svg>
