<?xml version="1.0" encoding="UTF-8" standalone="no"?>
<!-- Created with Inkscape (http://www.inkscape.org/) -->

<svg
   xmlns:dc="http://purl.org/dc/elements/1.1/"
   xmlns:cc="http://creativecommons.org/ns#"
   xmlns:rdf="http://www.w3.org/1999/02/22-rdf-syntax-ns#"
   xmlns:svg="http://www.w3.org/2000/svg"
   xmlns="http://www.w3.org/2000/svg"
   xmlns:sodipodi="http://sodipodi.sourceforge.net/DTD/sodipodi-0.dtd"
   xmlns:inkscape="http://www.inkscape.org/namespaces/inkscape"
   width="40"
   height="40"
   viewBox="0 0 40 40"
   id="svg9715"
   version="1.1"
   inkscape:version="0.91 r13725"
   sodipodi:docname="scene.svg">
  <defs
     id="defs9717" />
  <sodipodi:namedview
     id="base"
     pagecolor="#ffffff"
     bordercolor="#666666"
     borderopacity="1.0"
     inkscape:pageopacity="0.0"
     inkscape:pageshadow="2"
     inkscape:zoom="0.35"
     inkscape:cx="-1209.2858"
     inkscape:cy="491.42858"
     inkscape:document-units="px"
     inkscape:current-layer="layer1"
     showgrid="false"
     fit-margin-top="0"
     fit-margin-left="0"
     fit-margin-right="0"
     fit-margin-bottom="0"
     units="px"
     inkscape:window-width="1366"
     inkscape:window-height="705"
     inkscape:window-x="-8"
     inkscape:window-y="-8"
     inkscape:window-maximized="1" />
  <metadata
     id="metadata9720">
    <rdf:RDF>
      <cc:Work
         rdf:about="">
        <dc:format>image/svg+xml</dc:format>
        <dc:type
           rdf:resource="http://purl.org/dc/dcmitype/StillImage" />
        <dc:title></dc:title>
      </cc:Work>
    </rdf:RDF>
  </metadata>
  <g
     inkscape:label="Layer 1"
     inkscape:groupmode="layer"
     id="layer1"
     transform="translate(-1097.1429,-983.79078)">
    <g
       id="surface103925"
       transform="matrix(1.25,0,0,1.25,1097.1429,983.79078)">
      <path
         id="path10266"
         d="M 16,0 C 7.164063,0 0,7.164063 0,16 0,23.105469 4.632813,29.128906 11.039063,31.214844 12.601563,31.722656 14.269531,32 16,32 17.730469,32 19.398438,31.722656 20.960938,31.214844 27.367188,29.128906 32,23.105469 32,16 32,7.164063 24.835938,0 16,0"
         style="fill:#75dcf8;fill-opacity:1;fill-rule:nonzero;stroke:none"
         inkscape:connector-curvature="0" />
      <path
         id="path10268"
         d="M 1.757813,23.292969 C 3.667969,27.019531 7,29.898438 11.039063,31.214844 12.601563,31.722656 14.269531,32 16,32 17.730469,32 19.398438,31.722656 20.960938,31.214844 25,29.898438 28.332031,27.019531 30.242188,23.292969 Z m 0,0"
         style="fill:#191163;fill-opacity:1;fill-rule:nonzero;stroke:none"
         inkscape:connector-curvature="0" />
      <path
         id="path10270"
         d="m 20.246094,11.667969 c 0,3.648437 -2.953125,6.605469 -6.601563,6.605469 -3.648437,0 -6.605468,-2.957032 -6.605468,-6.605469 0,-3.644531 2.957031,-6.601563 6.605468,-6.601563 3.648438,0 6.601563,2.957032 6.601563,6.601563"
         style="fill:#fd9c1c;fill-opacity:1;fill-rule:nonzero;stroke:none"
         inkscape:connector-curvature="0" />
      <path
         id="path10272"
         d="m 13.644531,16.953125 c -2.914062,0 -5.285156,-2.371094 -5.285156,-5.285156 0,-2.910156 2.371094,-5.28125 5.285156,-5.28125 2.914063,0 5.28125,2.371094 5.28125,5.28125 0,2.914062 -2.367187,5.285156 -5.28125,5.285156"
         style="fill:#ffcc23;fill-opacity:1;fill-rule:nonzero;stroke:none"
         inkscape:connector-curvature="0" />
      <path
         id="path10274"
         d="m 30.351563,11.242188 c 0.01172,-0.08984 0.02344,-0.183594 0.02344,-0.277344 0,-1.261719 -1.1875,-2.28125 -2.648437,-2.28125 -0.226563,0 -0.445313,0.027344 -0.65625,0.074219 C 27.035156,7.609375 26.125,6.6875 25.007813,6.6875 c -0.207032,0 -0.410157,0.03125 -0.597657,0.09375 C 23.953125,6.410156 23.386719,6.1875 22.773438,6.1875 c -1.050782,0 -1.960938,0.644531 -2.414063,1.585938 -0.238281,-0.101563 -0.503906,-0.160157 -0.78125,-0.160157 -1.140625,0 -2.0625,0.957032 -2.0625,2.140625 0,0.25 0.04297,0.492188 0.121094,0.71875 -1.332031,0.316407 -2.324219,1.546875 -2.324219,3.023438 0,1.710937 1.339844,3.101562 2.992188,3.101562 1.351562,0 2.496093,-0.933593 2.863281,-2.210937 0.40625,1.238281 1.601562,2.136719 3.015625,2.136719 0.539062,0 1.050781,-0.128907 1.492187,-0.363282 0.378907,0.484375 0.957032,0.792969 1.601563,0.792969 1.140625,0 2.0625,-0.957031 2.0625,-2.140625 0,-0.03125 0,-0.0625 -0.0039,-0.09375 0.191406,0.105469 0.402343,0.167969 0.625,0.167969 0.835937,0 1.511718,-0.832031 1.511718,-1.855469 0,-0.859375 -0.476562,-1.578125 -1.121093,-1.789062"
         style="fill:#fafd61;fill-opacity:1;fill-rule:nonzero;stroke:none"
         inkscape:connector-curvature="0" />
      <path
         id="path10276"
         d="m 16.351563,17.25 c 0.01172,-0.08984 0.02344,-0.183594 0.02344,-0.277344 0,-1.257812 -1.1875,-2.28125 -2.648437,-2.28125 -0.226563,0 -0.445313,0.02734 -0.65625,0.07422 -0.03516,-1.148437 -0.941407,-2.070312 -2.058594,-2.070312 -0.210938,0 -0.414063,0.03516 -0.601563,0.09375 C 9.953128,12.41797 9.390628,12.19922 8.773441,12.19922 c -1.050782,0 -1.960938,0.644531 -2.414063,1.585937 -0.238281,-0.105468 -0.503906,-0.164062 -0.78125,-0.164062 -1.140625,0 -2.0625,0.960937 -2.0625,2.140625 0,0.253906 0.042969,0.496094 0.121094,0.71875 -1.328128,0.316405 -2.324222,1.55078 -2.324222,3.023436 0,1.710938 1.339844,3.101563 2.992188,3.101563 1.351562,0 2.496093,-0.929688 2.867187,-2.207031 0.40625,1.238281 1.601563,2.132812 3.011719,2.132812 0.542969,0 1.050781,-0.128906 1.496094,-0.363281 0.378906,0.484375 0.953125,0.792969 1.597656,0.792969 1.140625,0 2.066406,-0.957032 2.066406,-2.136719 0,-0.03516 -0.0039,-0.06641 -0.0039,-0.09766 0.1875,0.105468 0.398437,0.167968 0.621094,0.167968 0.835937,0 1.511718,-0.832031 1.511718,-1.855468 C 17.472656,18.183594 17,17.464844 16.351563,17.25"
         style="fill:#fafd61;fill-opacity:1;fill-rule:nonzero;stroke:none"
         inkscape:connector-curvature="0" />
      <path
         id="path10278"
         d="m 24.910156,23.160156 -4.953125,0 0,-13.785156 3.882813,-1.128906 1.070312,1.128906 z m 0,0"
         style="fill:#0070ba;fill-opacity:1;fill-rule:nonzero;stroke:none"
         inkscape:connector-curvature="0" />
      <path
         id="path10280"
         d="m 24.910156,23.160156 -1.140625,0 0.07031,-14.914062 1.070312,1.128906 z m 0,0"
         style="fill:#191163;fill-opacity:1;fill-rule:nonzero;stroke:none"
         inkscape:connector-curvature="0" />
      <path
         id="path10282"
         d="m 5.871094,23.160156 5.480469,0 0,-7.476562 -4.296875,-0.613281 -1.183594,0.613281 z m 0,0"
         style="fill:#0070ba;fill-opacity:1;fill-rule:nonzero;stroke:none"
         inkscape:connector-curvature="0" />
      <path
         id="path10284"
         d="m 5.871094,23.160156 1.261719,0 -0.078125,-8.089843 -1.183594,0.613281 z m 0,0"
         style="fill:#191163;fill-opacity:1;fill-rule:nonzero;stroke:none"
         inkscape:connector-curvature="0" />
      <path
         id="path10286"
         d="m 18.539063,23.136719 -4.515625,0 0,-12.597656 4.515625,0 z m 0,0"
         style="fill:#191163;fill-opacity:1;fill-rule:nonzero;stroke:none"
         inkscape:connector-curvature="0" />
      <path
         id="path10288"
         d="m 18.539063,23.160156 -4.515625,0 0,-0.710937 4.515625,0 z m 0,0"
         style="fill:#0070ba;fill-opacity:1;fill-rule:nonzero;stroke:none"
         inkscape:connector-curvature="0" />
      <path
         id="path10290"
         d="m 18.539063,22.074219 -4.515625,0 0,-0.707031 4.515625,0 z m 0,0"
         style="fill:#0070ba;fill-opacity:1;fill-rule:nonzero;stroke:none"
         inkscape:connector-curvature="0" />
      <path
         id="path10292"
         d="m 18.539063,20.992188 -4.515625,0 0,-0.707032 4.515625,0 z m 0,0"
         style="fill:#0070ba;fill-opacity:1;fill-rule:nonzero;stroke:none"
         inkscape:connector-curvature="0" />
      <path
         id="path10294"
         d="m 18.539063,19.910156 -4.515625,0 0,-0.710937 4.515625,0 z m 0,0"
         style="fill:#0070ba;fill-opacity:1;fill-rule:nonzero;stroke:none"
         inkscape:connector-curvature="0" />
      <path
         id="path10296"
         d="m 18.539063,18.828125 -4.515625,0 0,-0.710937 4.515625,0 z m 0,0"
         style="fill:#0070ba;fill-opacity:1;fill-rule:nonzero;stroke:none"
         inkscape:connector-curvature="0" />
      <path
         id="path10298"
         d="m 18.539063,17.746094 -4.515625,0 0,-0.710938 4.515625,0 z m 0,0"
         style="fill:#0070ba;fill-opacity:1;fill-rule:nonzero;stroke:none"
         inkscape:connector-curvature="0" />
      <path
         id="path10300"
         d="m 18.539063,16.664063 -4.515625,0 0,-0.710938 4.515625,0 z m 0,0"
         style="fill:#0070ba;fill-opacity:1;fill-rule:nonzero;stroke:none"
         inkscape:connector-curvature="0" />
      <path
         id="path10302"
         d="m 18.539063,15.578125 -4.515625,0 0,-0.707031 4.515625,0 z m 0,0"
         style="fill:#0070ba;fill-opacity:1;fill-rule:nonzero;stroke:none"
         inkscape:connector-curvature="0" />
      <path
         id="path10304"
         d="m 18.539063,14.496094 -4.515625,0 0,-0.710938 4.515625,0 z m 0,0"
         style="fill:#0070ba;fill-opacity:1;fill-rule:nonzero;stroke:none"
         inkscape:connector-curvature="0" />
      <path
         id="path10306"
         d="m 18.539063,13.414063 -4.515625,0 0,-0.710938 4.515625,0 z m 0,0"
         style="fill:#0070ba;fill-opacity:1;fill-rule:nonzero;stroke:none"
         inkscape:connector-curvature="0" />
      <path
         id="path10308"
         d="m 18.539063,12.332031 -4.515625,0 0,-0.710937 4.515625,0 z m 0,0"
         style="fill:#0070ba;fill-opacity:1;fill-rule:nonzero;stroke:none"
         inkscape:connector-curvature="0" />
      <path
         id="path10310"
         d="m 18.539063,11.25 -4.515625,0 0,-0.710937 4.515625,0 z m 0,0"
         style="fill:#0070ba;fill-opacity:1;fill-rule:nonzero;stroke:none"
         inkscape:connector-curvature="0" />
      <path
         id="path10312"
         d="m 13.851563,23.160156 -2.296875,0 0,-3.988281 2.296875,0 z m 0,0"
         style="fill:#191163;fill-opacity:1;fill-rule:nonzero;stroke:none"
         inkscape:connector-curvature="0" />
      <path
         id="path10314"
         d="m 11.308594,23.160156 -1.386719,0 0,-2.40625 1.386719,0 z m 0,0"
         style="fill:#28abe1;fill-opacity:1;fill-rule:nonzero;stroke:none"
         inkscape:connector-curvature="0" />
      <path
         id="path10316"
         d="m 26.128906,23.160156 -4.019531,0 0,-6.308593 4.019531,0 z m 0,0"
         style="fill:#28abe1;fill-opacity:1;fill-rule:nonzero;stroke:none"
         inkscape:connector-curvature="0" />
      <path
         id="path10318"
         d="m 23.0625,19.371094 -0.796875,0 0,-1.019531 0.796875,0 z m 0,0"
         style="fill:#0070ba;fill-opacity:1;fill-rule:nonzero;stroke:none"
         inkscape:connector-curvature="0" />
      <path
         id="path10320"
         d="m 24.027344,19.371094 -0.796875,0 0,-1.019531 0.796875,0 z m 0,0"
         style="fill:#0070ba;fill-opacity:1;fill-rule:nonzero;stroke:none"
         inkscape:connector-curvature="0" />
      <path
         id="path10322"
         d="m 24.996094,19.371094 -0.796875,0 0,-1.019531 0.796875,0 z m 0,0"
         style="fill:#0070ba;fill-opacity:1;fill-rule:nonzero;stroke:none"
         inkscape:connector-curvature="0" />
      <path
         id="path10324"
         d="m 25.960938,19.371094 -0.796875,0 0,-1.019531 0.796875,0 z m 0,0"
         style="fill:#0070ba;fill-opacity:1;fill-rule:nonzero;stroke:none"
         inkscape:connector-curvature="0" />
      <path
         id="path10326"
         d="m 23.0625,18.171875 -0.796875,0 0,-1.019531 0.796875,0 z m 0,0"
         style="fill:#0070ba;fill-opacity:1;fill-rule:nonzero;stroke:none"
         inkscape:connector-curvature="0" />
      <path
         id="path10328"
         d="m 24.019531,18.171875 -0.796875,0 0,-1.019531 0.796875,0 z m 0,0"
         style="fill:#0070ba;fill-opacity:1;fill-rule:nonzero;stroke:none"
         inkscape:connector-curvature="0" />
      <path
         id="path10330"
         d="m 24.980469,18.171875 -0.796875,0 0,-1.019531 0.796875,0 z m 0,0"
         style="fill:#0070ba;fill-opacity:1;fill-rule:nonzero;stroke:none"
         inkscape:connector-curvature="0" />
      <path
         id="path10332"
         d="m 25.960938,18.171875 -0.796875,0 0,-1.019531 0.796875,0 z m 0,0"
         style="fill:#0070ba;fill-opacity:1;fill-rule:nonzero;stroke:none"
         inkscape:connector-curvature="0" />
      <path
         id="path10334"
         d="m 23.0625,20.570313 -0.796875,0 0,-1.019532 0.796875,0 z m 0,0"
         style="fill:#0070ba;fill-opacity:1;fill-rule:nonzero;stroke:none"
         inkscape:connector-curvature="0" />
      <path
         id="path10336"
         d="m 24.027344,20.570313 -0.796875,0 0,-1.019532 0.796875,0 z m 0,0"
         style="fill:#0070ba;fill-opacity:1;fill-rule:nonzero;stroke:none"
         inkscape:connector-curvature="0" />
      <path
         id="path10338"
         d="m 24.996094,20.570313 -0.796875,0 0,-1.019532 0.796875,0 z m 0,0"
         style="fill:#0070ba;fill-opacity:1;fill-rule:nonzero;stroke:none"
         inkscape:connector-curvature="0" />
      <path
         id="path10340"
         d="m 25.960938,20.570313 -0.796875,0 0,-1.019532 0.796875,0 z m 0,0"
         style="fill:#0070ba;fill-opacity:1;fill-rule:nonzero;stroke:none"
         inkscape:connector-curvature="0" />
      <path
         id="path10342"
         d="m 23.0625,21.769531 -0.796875,0 0,-1.023437 0.796875,0 z m 0,0"
         style="fill:#0070ba;fill-opacity:1;fill-rule:nonzero;stroke:none"
         inkscape:connector-curvature="0" />
      <path
         id="path10344"
         d="m 24.027344,21.769531 -0.796875,0 0,-1.023437 0.796875,0 z m 0,0"
         style="fill:#0070ba;fill-opacity:1;fill-rule:nonzero;stroke:none"
         inkscape:connector-curvature="0" />
      <path
         id="path10346"
         d="m 24.996094,21.769531 -0.796875,0 0,-1.023437 0.796875,0 z m 0,0"
         style="fill:#0070ba;fill-opacity:1;fill-rule:nonzero;stroke:none"
         inkscape:connector-curvature="0" />
      <path
         id="path10348"
         d="m 25.960938,21.769531 -0.796875,0 0,-1.023437 0.796875,0 z m 0,0"
         style="fill:#0070ba;fill-opacity:1;fill-rule:nonzero;stroke:none"
         inkscape:connector-curvature="0" />
      <path
         id="path10350"
         d="m 23.0625,22.96875 -0.796875,0 0,-1.023437 0.796875,0 z m 0,0"
         style="fill:#0070ba;fill-opacity:1;fill-rule:nonzero;stroke:none"
         inkscape:connector-curvature="0" />
      <path
         id="path10352"
         d="m 24.027344,22.96875 -0.796875,0 0,-1.023437 0.796875,0 z m 0,0"
         style="fill:#0070ba;fill-opacity:1;fill-rule:nonzero;stroke:none"
         inkscape:connector-curvature="0" />
      <path
         id="path10354"
         d="m 24.996094,22.96875 -0.796875,0 0,-1.023437 0.796875,0 z m 0,0"
         style="fill:#0070ba;fill-opacity:1;fill-rule:nonzero;stroke:none"
         inkscape:connector-curvature="0" />
      <path
         id="path10356"
         d="m 25.960938,22.96875 -0.796875,0 0,-1.023437 0.796875,0 z m 0,0"
         style="fill:#0070ba;fill-opacity:1;fill-rule:nonzero;stroke:none"
         inkscape:connector-curvature="0" />
      <path
         id="path10358"
         d="m 20.714844,23.160156 -2.898438,0 0,-8.355468 2.898438,0 z m 0,0"
         style="fill:#28abe1;fill-opacity:1;fill-rule:nonzero;stroke:none"
         inkscape:connector-curvature="0" />
      <path
         id="path10360"
         d="m 9.121094,23.160156 -1.71875,0 0,-1.683593 1.71875,0 z m 0,0"
         style="fill:#191163;fill-opacity:1;fill-rule:nonzero;stroke:none"
         inkscape:connector-curvature="0" />
    </g>
  </g>
</svg>
