<?xml version="1.0" encoding="UTF-8" standalone="no"?>
<!-- Created with Inkscape (http://www.inkscape.org/) -->

<svg
   xmlns:dc="http://purl.org/dc/elements/1.1/"
   xmlns:cc="http://creativecommons.org/ns#"
   xmlns:rdf="http://www.w3.org/1999/02/22-rdf-syntax-ns#"
   xmlns:svg="http://www.w3.org/2000/svg"
   xmlns="http://www.w3.org/2000/svg"
   xmlns:sodipodi="http://sodipodi.sourceforge.net/DTD/sodipodi-0.dtd"
   xmlns:inkscape="http://www.inkscape.org/namespaces/inkscape"
   width="80"
   height="80"
   viewBox="0 0 80.000001 80.000002"
   id="svg3871"
   version="1.1"
   inkscape:version="0.91 r13725"
   sodipodi:docname="subtract.svg">
  <defs
     id="defs3873" />
  <sodipodi:namedview
     id="base"
     pagecolor="#ffffff"
     bordercolor="#666666"
     borderopacity="1.0"
     inkscape:pageopacity="0.0"
     inkscape:pageshadow="2"
     inkscape:zoom="2.8"
     inkscape:cx="33.571429"
     inkscape:cy="113.77749"
     inkscape:document-units="px"
     inkscape:current-layer="layer1"
     showgrid="false"
     inkscape:window-width="1600"
     inkscape:window-height="1137"
     inkscape:window-x="-8"
     inkscape:window-y="-8"
     inkscape:window-maximized="1"
     units="px"
     fit-margin-top="0"
     fit-margin-left="0"
     fit-margin-right="0"
     fit-margin-bottom="0" />
  <metadata
     id="metadata3876">
    <rdf:RDF>
      <cc:Work
         rdf:about="">
        <dc:format>image/svg+xml</dc:format>
        <dc:type
           rdf:resource="http://purl.org/dc/dcmitype/StillImage" />
        <dc:title></dc:title>
      </cc:Work>
    </rdf:RDF>
  </metadata>
  <g
     inkscape:label="Layer 1"
     inkscape:groupmode="layer"
     id="layer1"
     transform="translate(0,-972.3622)">
    <path
       inkscape:connector-curvature="0"
       style="fill:#75dcf8;fill-opacity:1;fill-rule:nonzero;stroke:none"
       d="m 80,1012.3622 c 0,22.0898 -17.91016,40 -40,40 -22.089844,0 -40,-17.9102 -40,-40 0,-22.0898 17.910156,-39.99997 40,-39.99997 22.08984,0 40,17.91017 40,39.99997"
       id="path7037" />
    <path
       inkscape:connector-curvature="0"
       style="fill:#ff3c3c;stroke:none;fill-opacity:1"
       d="m 55.4,1008.9622 q 0.6,0.6 0.6,1.4 l 0,4 q 0,0.85 -0.6,1.45 -0.6,0.55 -1.4,0.55 l -28,0 q -0.85,0 -1.45,-0.55 -0.55,-0.6 -0.55,-1.45 l 0,-3.95 q 0,-0.85 0.55,-1.45 0.6,-0.6 1.45,-0.6 l 28,0 q 0.8,0 1.4,0.6"
       id="path3667" />
  </g>
</svg>
