<?xml version="1.0" encoding="UTF-8" standalone="no"?>
<!-- Created with Inkscape (http://www.inkscape.org/) -->

<svg
   xmlns:dc="http://purl.org/dc/elements/1.1/"
   xmlns:cc="http://creativecommons.org/ns#"
   xmlns:rdf="http://www.w3.org/1999/02/22-rdf-syntax-ns#"
   xmlns:svg="http://www.w3.org/2000/svg"
   xmlns="http://www.w3.org/2000/svg"
   xmlns:sodipodi="http://sodipodi.sourceforge.net/DTD/sodipodi-0.dtd"
   xmlns:inkscape="http://www.inkscape.org/namespaces/inkscape"
   width="80"
   height="80"
   viewBox="0 0 80.000001 80.000001"
   id="svg3983"
   version="1.1"
   inkscape:version="0.91 r13725"
   sodipodi:docname="add.svg">
  <defs
     id="defs3985" />
  <sodipodi:namedview
     id="base"
     pagecolor="#ffffff"
     bordercolor="#666666"
     borderopacity="1.0"
     inkscape:pageopacity="0.0"
     inkscape:pageshadow="2"
     inkscape:zoom="1.4"
     inkscape:cx="5"
     inkscape:cy="227.14286"
     inkscape:document-units="px"
     inkscape:current-layer="layer1"
     showgrid="false"
     units="px"
     fit-margin-top="0"
     fit-margin-left="0"
     fit-margin-right="0"
     fit-margin-bottom="0"
     inkscape:window-width="1600"
     inkscape:window-height="1137"
     inkscape:window-x="-8"
     inkscape:window-y="-8"
     inkscape:window-maximized="1" />
  <metadata
     id="metadata3988">
    <rdf:RDF>
      <cc:Work
         rdf:about="">
        <dc:format>image/svg+xml</dc:format>
        <dc:type
           rdf:resource="http://purl.org/dc/dcmitype/StillImage" />
        <dc:title></dc:title>
      </cc:Work>
    </rdf:RDF>
  </metadata>
  <g
     inkscape:label="Layer 1"
     inkscape:groupmode="layer"
     id="layer1"
     transform="translate(0,-972.3622)">
    <path
       inkscape:connector-curvature="0"
       style="fill:#75dcf8;fill-opacity:1;fill-rule:nonzero;stroke:none"
       d="m 80.000001,1012.3622 c 0,22.0898 -17.91016,40 -40,40 C 17.91016,1052.3622 0,1034.452 0,1012.3622 c 0,-22.08977 17.91016,-39.99994 40.000001,-39.99994 22.08984,0 40,17.91017 40,39.99994"
       id="path7037" />
    <path
       inkscape:connector-curvature="0"
       style="fill:#00c300;stroke:none;fill-opacity:1"
       d="m 26,1008.3622 10,0 0,-9.94997 q 0,-0.85 0.550001,-1.45 0.6,-0.6 1.449999,-0.6 l 4,0 q 0.800001,0 1.4,0.6 0.6,0.6 0.6,1.4 l 0,9.99997 10,0 q 0.800001,0 1.4,0.6 0.6,0.6 0.6,1.4 l 0,4 q 0,0.85 -0.6,1.45 -0.6,0.55 -1.4,0.55 l -10,0 0,10 q 0,0.85 -0.6,1.45 -0.6,0.55 -1.4,0.55 l -4,0 q -0.85,0 -1.449999,-0.55 Q 36,1027.2122 36,1026.3622 l 0,-10 -10,0 q -0.85,0 -1.449999,-0.55 Q 24,1015.2122 24,1014.3622 l 0,-3.95 q 0,-0.85 0.550001,-1.45 0.6,-0.6 1.449999,-0.6"
       id="path3669" />
  </g>
</svg>
