<?xml version="1.0" encoding="UTF-8" standalone="no"?>
<!-- Created with Inkscape (http://www.inkscape.org/) -->

<svg
   xmlns:dc="http://purl.org/dc/elements/1.1/"
   xmlns:cc="http://creativecommons.org/ns#"
   xmlns:rdf="http://www.w3.org/1999/02/22-rdf-syntax-ns#"
   xmlns:svg="http://www.w3.org/2000/svg"
   xmlns="http://www.w3.org/2000/svg"
   xmlns:sodipodi="http://sodipodi.sourceforge.net/DTD/sodipodi-0.dtd"
   xmlns:inkscape="http://www.inkscape.org/namespaces/inkscape"
   width="80"
   height="80"
   viewBox="0 0 80.000001 80.000001"
   id="svg2"
   version="1.1"
   inkscape:version="0.91 r13725"
   sodipodi:docname="compile.svg">
  <defs
     id="defs4" />
  <sodipodi:namedview
     id="base"
     pagecolor="#ffffff"
     bordercolor="#666666"
     borderopacity="1.0"
     inkscape:pageopacity="0.0"
     inkscape:pageshadow="2"
     inkscape:zoom="0.35"
     inkscape:cx="-112.14286"
     inkscape:cy="520.00002"
     inkscape:document-units="px"
     inkscape:current-layer="layer1"
     showgrid="false"
     units="px"
     fit-margin-top="0"
     fit-margin-left="0"
     fit-margin-right="0"
     fit-margin-bottom="0"
     inkscape:window-width="1366"
     inkscape:window-height="705"
     inkscape:window-x="-8"
     inkscape:window-y="-8"
     inkscape:window-maximized="1" />
  <metadata
     id="metadata7">
    <rdf:RDF>
      <cc:Work
         rdf:about="">
        <dc:format>image/svg+xml</dc:format>
        <dc:type
           rdf:resource="http://purl.org/dc/dcmitype/StillImage" />
        <dc:title></dc:title>
      </cc:Work>
    </rdf:RDF>
  </metadata>
  <g
     inkscape:label="Layer 1"
     inkscape:groupmode="layer"
     id="layer1"
     transform="translate(0,-972.3622)">
    <g
       id="surface3454"
       transform="matrix(1.25,0,0,1.25,0,972.3622)">
      <path
         id="path4139"
         d="M 64,32 C 64,49.671875 49.671875,64 32,64 14.328125,64 0,49.671875 0,32 0,14.328125 14.328125,0 32,0 49.671875,0 64,14.328125 64,32"
         style="fill:#75dcf8;fill-opacity:1;fill-rule:nonzero;stroke:none"
         inkscape:connector-curvature="0" />
      <path
         id="path4141"
         d="m 28.996094,31.917969 3.277344,0.167969 c 0.347656,0.01953 0.683593,-0.164063 0.84375,-0.476563 0.300781,-0.597656 0.558593,-1.222656 0.773437,-1.867187 0.109375,-0.332032 0,-0.699219 -0.261719,-0.9375 L 31.246094,26.65625 c -0.207031,-0.1875 -0.308594,-0.457031 -0.292969,-0.734375 0.01172,-0.191406 0.01953,-0.386719 0.01953,-0.582031 0,-0.152344 -0.0039,-0.304688 -0.01172,-0.457031 -0.01563,-0.273438 0.08984,-0.542969 0.292968,-0.726563 l 2.375,-2.144531 c 0.261719,-0.234375 0.371094,-0.601563 0.261719,-0.9375 -0.214844,-0.644531 -0.472656,-1.265625 -0.773437,-1.863281 -0.160157,-0.3125 -0.496094,-0.496094 -0.84375,-0.476563 l -3.152344,0.160156 c -0.277344,0.01172 -0.535156,-0.105468 -0.71875,-0.3125 -0.25,-0.277343 -0.511719,-0.542968 -0.792969,-0.796875 -0.199219,-0.179687 -0.316406,-0.4375 -0.300781,-0.710937 l 0.160156,-3.148438 c 0.01563,-0.347656 -0.167969,-0.6875 -0.480469,-0.84375 C 26.390625,12.78125 25.769531,12.523438 25.125,12.3125 24.789063,12.199219 24.421875,12.3086 24.1875,12.570313 l -2.101562,2.324218 c -0.183594,0.207032 -0.453125,0.308594 -0.730469,0.292969 -0.183594,-0.01172 -0.367188,-0.01563 -0.550781,-0.01563 -0.195313,0 -0.386719,0.0039 -0.578125,0.01563 -0.277344,0.01563 -0.546875,-0.08594 -0.730469,-0.289062 L 17.394531,12.570313 C 17.15625,12.308594 16.789063,12.199219 16.457031,12.3125 15.8125,12.523438 15.1875,12.78125 14.59375,13.082031 c -0.316406,0.15625 -0.5,0.496094 -0.480469,0.84375 l 0.160157,3.175782 c 0.01563,0.269531 -0.101563,0.527343 -0.300782,0.710937 -0.269531,0.242188 -0.523437,0.5 -0.765625,0.773438 -0.183593,0.203125 -0.441406,0.324218 -0.71875,0.308593 L 9.308594,18.734375 c -0.351563,-0.01953 -0.6875,0.164063 -0.847656,0.476563 -0.300782,0.597656 -0.558594,1.21875 -0.769532,1.863281 -0.109375,0.335937 -0.00391,0.703125 0.257813,0.9375 l 2.410156,2.175781 c 0.199219,0.179688 0.300781,0.445313 0.289063,0.71875 -0.0078,0.140625 -0.0078,0.289063 -0.0078,0.433594 0,0.1875 0.0039,0.371094 0.01172,0.558594 0.01563,0.277343 -0.08594,0.546875 -0.289063,0.730468 l -2.414062,2.175782 c -0.261719,0.238281 -0.367188,0.605468 -0.257813,0.9375 0.210938,0.644531 0.46875,1.269531 0.769532,1.867187 0.160156,0.3125 0.496093,0.496094 0.847656,0.476563 l 3.300781,-0.167969 c 0.269531,-0.01172 0.527344,0.101562 0.710938,0.300781 0.210937,0.226563 0.429687,0.445313 0.65625,0.652344 0.203125,0.183594 0.320312,0.441406 0.304687,0.714844 l -0.167969,3.308593 c -0.01953,0.347657 0.164063,0.683594 0.480469,0.84375 0.59375,0.300782 1.21875,0.558594 1.863281,0.769532 0.332032,0.109375 0.699219,0.0039 0.9375,-0.257813 l 2.222657,-2.460937 c 0.183593,-0.207032 0.449218,-0.308594 0.726562,-0.296875 0.152344,0.0078 0.304688,0.01172 0.460938,0.01172 0.148437,0 0.292968,-0.0039 0.4375,-0.0078 0.273437,-0.01563 0.539062,0.08984 0.722656,0.292969 L 24.1875,38.25 c 0.234375,0.261719 0.601563,0.367188 0.9375,0.257813 0.644531,-0.210938 1.265625,-0.46875 1.863281,-0.769532 0.3125,-0.160156 0.496094,-0.496093 0.480469,-0.84375 l -0.167969,-3.28125 c -0.01563,-0.273437 0.101563,-0.535156 0.304688,-0.71875 0.238281,-0.214843 0.464844,-0.441406 0.683594,-0.675781 0.183593,-0.199219 0.4375,-0.3125 0.707031,-0.300781"
         style="fill:#faff00;fill-opacity:1;fill-rule:nonzero;stroke:none"
         inkscape:connector-curvature="0" />
      <path
         id="path4143"
         d="m 14.015625,17.761719 c -0.01563,0.01563 -0.02734,0.03516 -0.04297,0.05078 -0.269531,0.242188 -0.523437,0.5 -0.765625,0.773438 -0.183593,0.203125 -0.441406,0.324218 -0.71875,0.308593 L 9.308594,18.730469 c -0.351563,-0.01563 -0.6875,0.167969 -0.84375,0.480469 -0.304688,0.597656 -0.5625,1.222656 -0.773438,1.863281 -0.109375,0.332031 -0.00391,0.703125 0.257813,0.9375 l 2.410156,2.175781 c 0.199219,0.179688 0.300781,0.445313 0.289063,0.71875 -0.0078,0.144531 -0.01172,0.285156 -0.01172,0.433594 0,0.1875 0.0078,0.375 0.01563,0.558594 0.01563,0.277343 -0.08594,0.542968 -0.289063,0.730468 l -2.414062,2.179688 c -0.261719,0.234375 -0.367188,0.601562 -0.257813,0.933594 0.210938,0.644531 0.46875,1.269531 0.773438,1.867187 0.15625,0.3125 0.492187,0.496094 0.84375,0.476563 l 3.300781,-0.167969 c 0.273438,-0.01563 0.527344,0.101562 0.710938,0.300781 0.210937,0.226563 0.429687,0.445313 0.65625,0.652344 0.203125,0.183594 0.320312,0.441406 0.304687,0.714844 l -0.167969,3.304687 c -0.01953,0.351563 0.164063,0.6875 0.476563,0.847656 0.597656,0.300782 1.222656,0.558594 1.867187,0.769532 0.332032,0.109375 0.699219,0.0039 0.933594,-0.257813 l 2.226563,-2.464844 c 0.183593,-0.203125 0.449218,-0.304687 0.726562,-0.292968 0.152344,0.0078 0.304688,0.01563 0.460938,0.01563 0.144531,0 0.292968,-0.0078 0.4375,-0.01172 0.273437,-0.01563 0.539062,0.08984 0.722656,0.292969 L 24.1875,38.25 c 0.234375,0.261719 0.605469,0.367188 0.9375,0.257813 0.644531,-0.210938 1.265625,-0.46875 1.863281,-0.769532 0.3125,-0.160156 0.496094,-0.496093 0.480469,-0.847656 l -0.167969,-3.277344 c -0.01563,-0.273437 0.101563,-0.535156 0.304688,-0.71875 0.238281,-0.214843 0.464844,-0.441406 0.679687,-0.675781 0.03906,-0.03906 0.08203,-0.07422 0.125,-0.109375 C 27.203125,31 14.609375,18.644531 14.015625,17.761719"
         style="fill:#ffe100;fill-opacity:1;fill-rule:nonzero;stroke:none"
         inkscape:connector-curvature="0" />
      <path
         id="path4145"
         d="m 28.550781,25.410156 c 0,4.285157 -3.476562,7.761719 -7.761718,7.761719 -4.285157,0 -7.761719,-3.476562 -7.761719,-7.761719 0,-4.285156 3.476562,-7.761718 7.761719,-7.761718 4.285156,0 7.761718,3.476562 7.761718,7.761718"
         style="fill:#ff8500;fill-opacity:1;fill-rule:nonzero;stroke:none"
         inkscape:connector-curvature="0" />
      <path
         id="path4147"
         d="m 24.195313,24.914063 c 0.273437,1.882812 -1.03125,3.628906 -2.910157,3.902343 -1.882812,0.273438 -3.628906,-1.03125 -3.902343,-2.914062 -0.273438,-1.878906 1.03125,-3.625 2.914062,-3.898438 1.878906,-0.273437 3.625,1.027344 3.898438,2.910157"
         style="fill:#3ad4fd;fill-opacity:1;fill-rule:nonzero;stroke:none"
         inkscape:connector-curvature="0" />
      <path
         id="path4149"
         d="m 51.863281,43.175781 3.109375,-0.292968 c 0.402344,-0.03516 0.757813,-0.300782 0.882813,-0.6875 0.191406,-0.582032 0.34375,-1.175782 0.453125,-1.785157 0.07422,-0.398437 -0.113281,-0.800781 -0.449219,-1.023437 l -2.539062,-1.703125 c -0.265625,-0.175781 -0.425782,-0.46875 -0.457032,-0.785156 -0.01563,-0.171875 -0.03516,-0.34375 -0.05859,-0.511719 -0.02344,-0.144531 -0.04687,-0.285156 -0.07422,-0.425781 -0.05469,-0.296875 0.03125,-0.601563 0.222656,-0.835938 l 1.945313,-2.347656 c 0.257812,-0.308594 0.320312,-0.75 0.136718,-1.109375 -0.277343,-0.550781 -0.59375,-1.078125 -0.941406,-1.582031 -0.226562,-0.332032 -0.644531,-0.488282 -1.039062,-0.410157 l -2.945313,0.585938 c -0.3125,0.05859 -0.628906,-0.03125 -0.871094,-0.234375 -0.253906,-0.210938 -0.519531,-0.410156 -0.792968,-0.59375 -0.257813,-0.179688 -0.433594,-0.453125 -0.464844,-0.765625 l -0.277344,-2.984375 c -0.03906,-0.402344 -0.304687,-0.757813 -0.691406,-0.882813 -0.578125,-0.1875 -1.175781,-0.339843 -1.78125,-0.453125 -0.398438,-0.07031 -0.800781,0.113282 -1.027344,0.449219 l -1.664062,2.488281 c -0.171875,0.257813 -0.457032,0.414063 -0.765625,0.441407 -0.164063,0.01563 -0.328125,0.03516 -0.492188,0.0625 -0.171875,0.02344 -0.339844,0.05078 -0.503906,0.08594 -0.316406,0.05859 -0.640625,-0.01172 -0.886719,-0.214844 L 37.597656,25.757813 C 37.285156,25.5 36.84375,25.4375 36.484375,25.621094 c -0.550781,0.28125 -1.078125,0.59375 -1.582031,0.941406 -0.332031,0.230469 -0.484375,0.644531 -0.40625,1.042969 l 0.585937,2.964844 c 0.0625,0.308593 -0.02734,0.621093 -0.226562,0.863281 -0.199219,0.246094 -0.390625,0.503906 -0.566406,0.769531 -0.175782,0.261719 -0.453125,0.441406 -0.769532,0.46875 L 30.5,32.957031 c -0.402344,0.03906 -0.753906,0.300782 -0.878906,0.6875 -0.191406,0.578125 -0.34375,1.175782 -0.453125,1.785157 -0.07422,0.398437 0.113281,0.800781 0.449219,1.023437 l 2.566406,1.71875 c 0.25,0.167969 0.417969,0.4375 0.449219,0.734375 0.01563,0.136719 0.03125,0.269531 0.04687,0.40625 0.02734,0.164063 0.05469,0.328125 0.08594,0.492188 0.0625,0.308593 -0.0078,0.625 -0.207031,0.867187 L 30.578125,43.0625 c -0.261719,0.3125 -0.324219,0.75 -0.140625,1.109375 0.28125,0.550781 0.597656,1.082031 0.941406,1.582031 0.230469,0.335938 0.648438,0.488282 1.042969,0.410157 l 3.09375,-0.613282 c 0.308594,-0.0625 0.617188,0.02734 0.863281,0.222657 0.207032,0.164062 0.417969,0.324218 0.636719,0.472656 0.261719,0.179687 0.433594,0.453125 0.464844,0.765625 l 0.292969,3.144531 c 0.03906,0.402344 0.304687,0.757813 0.6875,0.882813 0.582031,0.1875 1.175781,0.339843 1.785156,0.449218 0.398437,0.07422 0.800781,-0.109375 1.027344,-0.445312 l 1.761718,-2.628906 c 0.164063,-0.25 0.433594,-0.421875 0.734375,-0.453125 0.144532,-0.01563 0.289063,-0.03125 0.4375,-0.05078 0.132813,-0.01953 0.269532,-0.04297 0.402344,-0.07031 0.296875,-0.05469 0.601563,0.03125 0.835938,0.222656 l 2.433593,2.019531 c 0.3125,0.257813 0.75,0.320313 1.113282,0.136719 0.550781,-0.28125 1.078125,-0.59375 1.582031,-0.941406 0.332031,-0.230469 0.484375,-0.644531 0.40625,-1.042969 l -0.609375,-3.070312 c -0.05859,-0.308594 0.03125,-0.621094 0.230469,-0.867188 0.175781,-0.214844 0.34375,-0.4375 0.5,-0.664062 0.175781,-0.253907 0.449218,-0.429688 0.761718,-0.457032"
         style="fill:#78ff00;fill-opacity:1;fill-rule:nonzero;stroke:none"
         inkscape:connector-curvature="0" />
      <path
         id="path4151"
         d="m 55.859375,39.386719 -2.539062,-1.703125 c -0.265625,-0.175781 -0.425782,-0.46875 -0.453125,-0.785156 -0.01953,-0.171875 -0.03906,-0.34375 -0.0625,-0.511719 -0.01953,-0.144531 -0.04687,-0.285156 -0.07422,-0.425781 -0.05469,-0.296875 0.03125,-0.601563 0.222656,-0.835938 l 1.945313,-2.347656 c 0.261718,-0.308594 0.320312,-0.75 0.140625,-1.109375 -0.28125,-0.550781 -0.597657,-1.078125 -0.945313,-1.582031 -0.226562,-0.332032 -0.644531,-0.488282 -1.039062,-0.410157 l -2.945313,0.585938 c -0.3125,0.05859 -0.628906,-0.03125 -0.871094,-0.234375 C 49.097656,29.914063 48.953125,29.8125 48.808594,29.703125 L 37.082031,46.304688 c 0.222657,0.175781 0.371094,0.425781 0.398438,0.707031 l 0.292969,3.144531 c 0.03906,0.402344 0.304687,0.757813 0.6875,0.882813 0.582031,0.1875 1.175781,0.339843 1.785156,0.453125 0.398437,0.07031 0.800781,-0.113282 1.027344,-0.449219 l 1.761718,-2.628906 c 0.167969,-0.25 0.433594,-0.421875 0.734375,-0.453125 0.144532,-0.01172 0.289063,-0.03125 0.4375,-0.05078 0.136719,-0.01953 0.269532,-0.04297 0.402344,-0.07031 0.296875,-0.05469 0.601563,0.03125 0.832031,0.222656 l 2.4375,2.019531 c 0.3125,0.257813 0.75,0.320313 1.113282,0.136719 0.550781,-0.28125 1.078125,-0.59375 1.582031,-0.941406 0.332031,-0.230469 0.484375,-0.644531 0.40625,-1.042969 L 50.375,45.164063 c -0.0625,-0.308594 0.02734,-0.621094 0.226563,-0.867188 0.175781,-0.214844 0.339843,-0.4375 0.5,-0.664062 0.175781,-0.253907 0.449218,-0.429688 0.761718,-0.457032 l 3.109375,-0.292968 c 0.402344,-0.03516 0.757813,-0.300782 0.882813,-0.6875 0.191406,-0.578125 0.34375,-1.175782 0.453125,-1.785157 0.07422,-0.398437 -0.113281,-0.800781 -0.449219,-1.023437"
         style="fill:#1efa00;fill-opacity:1;fill-rule:nonzero;stroke:none"
         inkscape:connector-curvature="0" />
      <path
         id="path4153"
         d="M 43.960938,46.339844 C 39.320313,47.015625 34.992188,43.789063 34.316406,39.144531 33.640625,34.5 36.871094,30.175781 41.511719,29.5 c 4.644531,-0.675781 8.972656,2.550781 9.648437,7.195313 0.675782,4.644531 -2.554687,8.96875 -7.199218,9.644531"
         style="fill:#00c505;fill-opacity:1;fill-rule:nonzero;stroke:none"
         inkscape:connector-curvature="0" />
      <path
         id="path4155"
         d="m 46.144531,37.425781 c 0.273438,1.878907 -1.03125,3.625 -2.910156,3.898438 -1.882812,0.277344 -3.628906,-1.027344 -3.902344,-2.910156 -0.273437,-1.878907 1.027344,-3.625 2.910157,-3.898438 1.882812,-0.273437 3.628906,1.027344 3.902343,2.910156"
         style="fill:#3ad4fd;fill-opacity:1;fill-rule:nonzero;stroke:none"
         inkscape:connector-curvature="0" />
    </g>
  </g>
</svg>
