<?xml version="1.0" encoding="UTF-8" standalone="no"?>
<!-- Created with Inkscape (http://www.inkscape.org/) -->

<svg
   xmlns:dc="http://purl.org/dc/elements/1.1/"
   xmlns:cc="http://creativecommons.org/ns#"
   xmlns:rdf="http://www.w3.org/1999/02/22-rdf-syntax-ns#"
   xmlns:svg="http://www.w3.org/2000/svg"
   xmlns="http://www.w3.org/2000/svg"
   xmlns:sodipodi="http://sodipodi.sourceforge.net/DTD/sodipodi-0.dtd"
   xmlns:inkscape="http://www.inkscape.org/namespaces/inkscape"
   width="80"
   height="80"
   viewBox="0 0 80 80"
   id="svg4173"
   version="1.1"
   inkscape:version="0.91 r13725"
   sodipodi:docname="link.svg">
  <defs
     id="defs4175" />
  <sodipodi:namedview
     id="base"
     pagecolor="#ffffff"
     bordercolor="#666666"
     borderopacity="1.0"
     inkscape:pageopacity="0.0"
     inkscape:pageshadow="2"
     inkscape:zoom="0.35"
     inkscape:cx="-1117.8572"
     inkscape:cy="497.14285"
     inkscape:document-units="px"
     inkscape:current-layer="layer1"
     showgrid="false"
     fit-margin-top="0"
     fit-margin-left="0"
     fit-margin-right="0"
     fit-margin-bottom="0"
     units="px"
     inkscape:window-width="1366"
     inkscape:window-height="705"
     inkscape:window-x="-8"
     inkscape:window-y="-8"
     inkscape:window-maximized="1" />
  <metadata
     id="metadata4178">
    <rdf:RDF>
      <cc:Work
         rdf:about="">
        <dc:format>image/svg+xml</dc:format>
        <dc:type
           rdf:resource="http://purl.org/dc/dcmitype/StillImage" />
        <dc:title></dc:title>
      </cc:Work>
    </rdf:RDF>
  </metadata>
  <g
     inkscape:label="Layer 1"
     inkscape:groupmode="layer"
     id="layer1"
     transform="translate(-1005.7143,-949.50506)">
    <g
       id="surface33545"
       transform="matrix(1.25,0,0,1.25,1005.7143,949.50506)">
      <path
         id="path4724"
         d="M 64,32 C 64,49.671875 49.671875,64 32,64 14.328125,64 0,49.671875 0,32 0,14.328125 14.328125,0 32,0 49.671875,0 64,14.328125 64,32"
         style="fill:#75dcf8;fill-opacity:1;fill-rule:nonzero;stroke:none"
         inkscape:connector-curvature="0" />
      <path
         id="path4726"
         d="m 37.960938,30.441406 c -1.382813,-2.644531 -3.226563,-5.339843 -6.128907,-6.417968 -1.253906,-0.460938 -2.609375,-0.628907 -3.9375,-0.472657 -0.671875,0.07813 -1.335937,0.238282 -1.972656,0.472657 -1.578125,0.585937 -2.949219,1.71875 -4.320312,2.664062 -1.179688,0.816406 -2.359375,1.628906 -3.539063,2.441406 C 16.519531,30.1875 14.980469,31.25 13.441406,32.3125 9.582031,34.972656 8.609375,40.257813 11.269531,44.117188 l 1.410157,2.050781 C 15.339844,50.027344 20.625,51 24.484375,48.339844 l 9.027344,-6.222656 c -2.03125,-0.394532 -3.882813,-1.421875 -5.28125,-2.957032 l -6.640625,4.578125 c -1.390625,0.957032 -3.292969,0.605469 -4.25,-0.78125 L 15.667969,40.53125 C 14.710938,39.144531 15.0625,37.242188 16.453125,36.285156 l 10.621094,-7.320312 c 1.386719,-0.957031 3.289062,-0.609375 4.246094,0.78125 l 1.671875,2.421875 c 0.05859,0.08984 0.09766,0.183594 0.148437,0.273437 0.03125,-0.01953 0.06641,-0.03516 0.09766,-0.05469 -0.03125,0.01953 -0.0625,0.03516 -0.09766,0.05469 0.0078,0.01563 0.01563,0.02734 0.02344,0.03906 l 0.800781,1.160156 c 0.355469,0.519531 0.945312,0.828125 1.574219,0.828125 0.386718,0 0.761718,-0.117187 1.082031,-0.339844 0,0 2.046875,-1.40625 2.046875,-1.40625 0.238281,-0.167968 -0.558594,-1.941406 -0.707031,-2.28125"
         style="fill:#6e6e6e;fill-opacity:1;fill-rule:nonzero;stroke:none"
         inkscape:connector-curvature="0" />
      <path
         id="path4728"
         d="m 23.164063,42.652344 -1.574219,1.085937 c -1.390625,0.957032 -3.292969,0.605469 -4.25,-0.78125 l -1.671875,-2.421875 c -0.957031,-1.390625 -0.605469,-3.292968 0.785156,-4.25 l 6.988281,-4.816406 c 0.09375,-2.117187 0.222657,-4.230469 0.398438,-6.347656 C 23.074219,25.625 22.335938,26.179688 21.601563,26.6875 20.421875,27.5 19.242188,28.316406 18.0625,29.128906 16.519531,30.1875 14.980469,31.25 13.441406,32.3125 9.582031,34.972656 8.609375,40.257813 11.269531,44.117188 l 1.410157,2.050781 c 2.351562,3.410156 6.753906,4.558594 10.410156,2.945312 0.02734,-2.15625 0.05078,-4.308593 0.07422,-6.460937"
         style="fill:#575757;fill-opacity:1;fill-rule:nonzero;stroke:none"
         inkscape:connector-curvature="0" />
      <path
         id="path4730"
         d="M 52.960938,20.546875 51.546875,18.5 C 48.886719,14.640625 43.601563,13.667969 39.746094,16.328125 l -9.027344,6.21875 c 1.875,0.367188 3.597656,1.28125 4.953125,2.632813 l 7.082031,-4.882813 c 1.390625,-0.957031 3.292969,-0.605469 4.25,0.78125 l 1.671875,2.425781 c 0.957032,1.386719 0.605469,3.289063 -0.785156,4.246094 l -10.621094,7.320313 c -1.386718,0.957031 -3.289062,0.609375 -4.25,-0.78125 l -1.667968,-2.421875 c -0.06641,-0.101563 -0.117188,-0.207032 -0.171875,-0.3125 L 30.382813,30.394531 C 30.023438,29.875 29.433594,29.566406 28.804688,29.566406 c -0.386719,0 -0.761719,0.117188 -1.082032,0.339844 0,0 -2.230468,1.535156 -2.230468,1.535156 -0.386719,0.269532 0.761718,2.828125 0.941406,3.15625 1.402344,2.566407 3.289062,5.125 6.152344,6.109375 2.53125,0.871094 5.378906,0.484375 7.582031,-1.035156 0,0 10.621094,-7.320312 10.621094,-7.320312 3.859375,-2.660157 4.832031,-7.945313 2.171875,-11.804688"
         style="fill:#e6e6e6;fill-opacity:1;fill-rule:nonzero;stroke:none"
         inkscape:connector-curvature="0" />
      <path
         id="path4732"
         d="m 38.625,23.144531 c 0.04297,-2.054687 0.09766,-4.109375 0.164063,-6.160156 l -8.070313,5.5625 c 1.875,0.367188 3.597656,1.28125 4.953125,2.632813 z m 0,0"
         style="fill:#999999;fill-opacity:1;fill-rule:nonzero;stroke:none"
         inkscape:connector-curvature="0" />
      <path
         id="path4734"
         d="m 38.558594,34.183594 -1.289063,0.886719 c -1.386718,0.957031 -3.289062,0.609375 -4.246093,-0.78125 l -1.671875,-2.421875 c -0.07031,-0.101563 -0.117188,-0.207032 -0.171875,-0.3125 L 30.382813,30.394531 C 30.023438,29.875 29.433594,29.566406 28.804688,29.566406 c -0.386719,0 -0.761719,0.117188 -1.082032,0.339844 0,0 -2.230468,1.535156 -2.230468,1.535156 -0.390625,0.269532 0.761718,2.828125 0.941406,3.15625 1.402344,2.566407 3.289062,5.125 6.152344,6.109375 1.996093,0.6875 4.183593,0.578125 6.101562,-0.234375 C 38.621094,38.375 38.578125,36.28125 38.558594,34.183594"
         style="fill:#999999;fill-opacity:1;fill-rule:nonzero;stroke:none"
         inkscape:connector-curvature="0" />
    </g>
  </g>
</svg>
