<?xml version="1.0" encoding="UTF-8" standalone="no"?>
<!-- Created with Inkscape (http://www.inkscape.org/) -->

<svg
   xmlns:dc="http://purl.org/dc/elements/1.1/"
   xmlns:cc="http://creativecommons.org/ns#"
   xmlns:rdf="http://www.w3.org/1999/02/22-rdf-syntax-ns#"
   xmlns:svg="http://www.w3.org/2000/svg"
   xmlns="http://www.w3.org/2000/svg"
   xmlns:sodipodi="http://sodipodi.sourceforge.net/DTD/sodipodi-0.dtd"
   xmlns:inkscape="http://www.inkscape.org/namespaces/inkscape"
   width="18.062222mm"
   height="18.062222mm"
   viewBox="0 0 63.999998 63.999997"
   id="svg2"
   version="1.1"
   inkscape:version="0.91 r13725"
   sodipodi:docname="magnifying_glass.svg"
   inkscape:export-filename="C:\Users\kwizatz\mg16x16.png"
   inkscape:export-xdpi="22.5"
   inkscape:export-ydpi="22.5">
  <defs
     id="defs4" />
  <sodipodi:namedview
     id="base"
     pagecolor="#ffffff"
     bordercolor="#666666"
     borderopacity="1.0"
     inkscape:pageopacity="0.0"
     inkscape:pageshadow="2"
     inkscape:zoom="2.8"
     inkscape:cx="102.09572"
     inkscape:cy="15.27853"
     inkscape:document-units="px"
     inkscape:current-layer="layer1"
     showgrid="false"
     fit-margin-top="0"
     fit-margin-left="0"
     fit-margin-right="0"
     fit-margin-bottom="0"
     inkscape:window-width="1366"
     inkscape:window-height="705"
     inkscape:window-x="-8"
     inkscape:window-y="-8"
     inkscape:window-maximized="1" />
  <metadata
     id="metadata7">
    <rdf:RDF>
      <cc:Work
         rdf:about="">
        <dc:format>image/svg+xml</dc:format>
        <dc:type
           rdf:resource="http://purl.org/dc/dcmitype/StillImage" />
        <dc:title></dc:title>
      </cc:Work>
    </rdf:RDF>
  </metadata>
  <g
     inkscape:label="Layer 1"
     inkscape:groupmode="layer"
     id="layer1"
     transform="translate(0,-988.3622)">
    <g
       id="g5672">
      <g
         style="opacity:1;fill:#00b4b8;fill-opacity:1"
         transform="translate(0,988.3622)"
         id="g4139">
        <circle
           style="fill:#00b4b8;fill-opacity:1"
           cx="32"
           cy="32"
           r="32"
           id="circle4141" />
      </g>
      <g
         transform="translate(0,988.3622)"
         style="opacity:0.2"
         id="g4143">
        <g
           id="g4145">
          <path
             style="fill:#231f20"
             inkscape:connector-curvature="0"
             d="m 48,52.5 c -0.64,0 -1.28,-0.244 -1.768,-0.732 l -12,-12 c -0.977,-0.977 -0.977,-2.559 0,-3.535 0.976,-0.977 2.56,-0.977 3.535,0 l 12,12 c 0.977,0.977 0.977,2.559 0,3.535 C 49.28,52.256 48.64,52.5 48,52.5 Z"
             id="path4147" />
        </g>
      </g>
      <g
         transform="translate(0,988.3622)"
         id="g4149">
        <path
           style="fill:#4f5d73"
           inkscape:connector-curvature="0"
           d="m 48,50.5 c -0.64,0 -1.28,-0.244 -1.768,-0.732 l -12,-12 c -0.977,-0.977 -0.977,-2.559 0,-3.535 0.976,-0.977 2.56,-0.977 3.535,0 l 12,12 c 0.977,0.977 0.977,2.559 0,3.535 C 49.28,50.256 48.64,50.5 48,50.5 Z"
           id="path4151" />
      </g>
      <g
         transform="translate(0,988.3622)"
         id="g4153">
        <circle
           style="fill:#77b3d4"
           r="10.567"
           cx="28.386"
           cy="28.386"
           transform="matrix(0.7071,-0.7071,0.7071,0.7071,-11.7579,28.386)"
           id="ellipse4155" />
      </g>
      <g
         transform="translate(0,988.3622)"
         style="opacity:0.2"
         id="g4157">
        <g
           id="g4159">
          <path
             style="fill:#231f20"
             inkscape:connector-curvature="0"
             d="m 28.386,19.819 c 2.704,0 5.409,1.032 7.472,3.095 4.127,4.127 4.127,10.817 0,14.944 -2.063,2.063 -4.768,3.095 -7.472,3.095 -2.704,0 -5.409,-1.032 -7.472,-3.095 -4.127,-4.127 -4.127,-10.817 0,-14.944 2.063,-2.063 4.768,-3.095 7.472,-3.095 z m 0,-4 c -3.891,0 -7.549,1.515 -10.3,4.267 -5.68,5.68 -5.68,14.921 0,20.601 2.751,2.751 6.409,4.267 10.3,4.267 3.891,0 7.549,-1.515 10.3,-4.267 5.68,-5.68 5.68,-14.921 0,-20.601 -2.751,-2.752 -6.409,-4.267 -10.3,-4.267 l 0,0 z"
             id="path4161" />
        </g>
      </g>
      <g
         transform="translate(0,988.3622)"
         id="g4163">
        <path
           style="fill:#ffffff"
           inkscape:connector-curvature="0"
           d="m 28.386,17.819 c 2.704,0 5.409,1.032 7.472,3.095 4.127,4.127 4.127,10.817 0,14.944 -2.063,2.063 -4.768,3.095 -7.472,3.095 -2.704,0 -5.409,-1.032 -7.472,-3.095 -4.127,-4.127 -4.127,-10.817 0,-14.944 2.063,-2.063 4.768,-3.095 7.472,-3.095 m 0,-4 c -3.891,0 -7.549,1.515 -10.3,4.267 -5.68,5.68 -5.68,14.921 0,20.601 2.751,2.751 6.409,4.267 10.3,4.267 3.891,0 7.549,-1.515 10.3,-4.267 5.68,-5.68 5.68,-14.921 0,-20.601 -2.751,-2.752 -6.409,-4.267 -10.3,-4.267 l 0,0 z"
           id="path4165" />
      </g>
      <g
         transform="translate(0,988.3622)"
         id="Layer_2" />
    </g>
  </g>
</svg>
