<?xml version="1.0" encoding="UTF-8" standalone="no"?>
<!-- Created with Inkscape (http://www.inkscape.org/) -->

<svg
   xmlns:dc="http://purl.org/dc/elements/1.1/"
   xmlns:cc="http://creativecommons.org/ns#"
   xmlns:rdf="http://www.w3.org/1999/02/22-rdf-syntax-ns#"
   xmlns:svg="http://www.w3.org/2000/svg"
   xmlns="http://www.w3.org/2000/svg"
   xmlns:sodipodi="http://sodipodi.sourceforge.net/DTD/sodipodi-0.dtd"
   xmlns:inkscape="http://www.inkscape.org/namespaces/inkscape"
   width="80"
   height="80"
   viewBox="0 0 80.000001 80.000001"
   id="svg4749"
   version="1.1"
   inkscape:version="0.91 r13725"
   sodipodi:docname="new.svg">
  <defs
     id="defs4751" />
  <sodipodi:namedview
     id="base"
     pagecolor="#ffffff"
     bordercolor="#666666"
     borderopacity="1.0"
     inkscape:pageopacity="0.0"
     inkscape:pageshadow="2"
     inkscape:zoom="0.35"
     inkscape:cx="-1066.4286"
     inkscape:cy="488.57145"
     inkscape:document-units="px"
     inkscape:current-layer="layer1"
     showgrid="false"
     units="px"
     fit-margin-top="0"
     fit-margin-left="0"
     fit-margin-right="0"
     fit-margin-bottom="0"
     inkscape:window-width="1366"
     inkscape:window-height="705"
     inkscape:window-x="-8"
     inkscape:window-y="-8"
     inkscape:window-maximized="1" />
  <metadata
     id="metadata4754">
    <rdf:RDF>
      <cc:Work
         rdf:about="">
        <dc:format>image/svg+xml</dc:format>
        <dc:type
           rdf:resource="http://purl.org/dc/dcmitype/StillImage" />
        <dc:title></dc:title>
      </cc:Work>
    </rdf:RDF>
  </metadata>
  <g
     inkscape:label="Layer 1"
     inkscape:groupmode="layer"
     id="layer1"
     transform="translate(-954.28571,-940.93363)">
    <g
       id="surface48337"
       transform="matrix(1.25,0,0,1.25,954.28571,940.93363)">
      <path
         id="path5300"
         d="M 64,32 C 64,49.671875 49.671875,64 32,64 14.328125,64 0,49.671875 0,32 0,14.328125 14.328125,0 32,0 49.671875,0 64,14.328125 64,32"
         style="fill:#75dcf8;fill-opacity:1;fill-rule:nonzero;stroke:none"
         inkscape:connector-curvature="0" />
      <path
         id="path5302"
         d="m 47.507813,55.410156 -30.445313,0 c -1.503906,0 -2.722656,-1.21875 -2.722656,-2.726562 l 0,-30.871094 12.496094,-12.496094 20.671875,0 c 1.503906,0 2.726562,1.21875 2.726562,2.726563 l 0,40.640625 c 0,1.507812 -1.222656,2.726562 -2.726562,2.726562"
         style="fill:#cccccc;fill-opacity:1;fill-rule:nonzero;stroke:none"
         inkscape:connector-curvature="0" />
      <path
         id="path5304"
         d="m 14.339844,52.683594 0,-30.871094 12.496094,-12.496094 20.671875,0 0.128906,43.34375 z m 0,0"
         style="fill:#b3b3b3;fill-opacity:1;fill-rule:nonzero;stroke:none"
         inkscape:connector-curvature="0" />
      <path
         id="path5306"
         d="m 43.769531,51.671875 -30.445312,0 c -1.503906,0 -2.722656,-1.21875 -2.722656,-2.722656 l 0,-30.875 12.496093,-12.496094 20.671875,0 c 1.503907,0 2.726563,1.222656 2.726563,2.726563 l 0,40.644531 c 0,1.503906 -1.222656,2.722656 -2.726563,2.722656"
         style="fill:#ffffff;fill-opacity:1;fill-rule:nonzero;stroke:none"
         inkscape:connector-curvature="0" />
      <path
         id="path5308"
         d="m 21.035156,18.074219 -10.433593,0 12.496093,-12.496094 0,10.433594 c 0,1.140625 -0.921875,2.0625 -2.0625,2.0625"
         style="fill:#cccccc;fill-opacity:1;fill-rule:nonzero;stroke:none"
         inkscape:connector-curvature="0" />
      <path
         id="path5310"
         d="m 49.015625,56.066406 -3.738281,0 0,-11.523437 3.738281,0 z m 0,0"
         style="fill:#05bd21;fill-opacity:1;fill-rule:nonzero;stroke:none"
         inkscape:connector-curvature="0" />
      <path
         id="path5312"
         d="m 52.90625,52.175781 -11.523437,0 0,-3.738281 11.523437,0 z m 0,0"
         style="fill:#05bd21;fill-opacity:1;fill-rule:nonzero;stroke:none"
         inkscape:connector-curvature="0" />
    </g>
  </g>
</svg>
