<?xml version="1.0" encoding="UTF-8" standalone="no"?>
<!-- Created with Inkscape (http://www.inkscape.org/) -->

<svg
   xmlns:dc="http://purl.org/dc/elements/1.1/"
   xmlns:cc="http://creativecommons.org/ns#"
   xmlns:rdf="http://www.w3.org/1999/02/22-rdf-syntax-ns#"
   xmlns:svg="http://www.w3.org/2000/svg"
   xmlns="http://www.w3.org/2000/svg"
   xmlns:sodipodi="http://sodipodi.sourceforge.net/DTD/sodipodi-0.dtd"
   xmlns:inkscape="http://www.inkscape.org/namespaces/inkscape"
   width="80"
   height="80"
   viewBox="0 0 80 80"
   id="svg7083"
   version="1.1"
   inkscape:version="0.91 r13725"
   sodipodi:docname="save.svg">
  <defs
     id="defs7085" />
  <sodipodi:namedview
     id="base"
     pagecolor="#ffffff"
     bordercolor="#666666"
     borderopacity="1.0"
     inkscape:pageopacity="0.0"
     inkscape:pageshadow="2"
     inkscape:zoom="0.35"
     inkscape:cx="-1132.1429"
     inkscape:cy="485.71429"
     inkscape:document-units="px"
     inkscape:current-layer="layer1"
     showgrid="false"
     fit-margin-top="0"
     fit-margin-left="0"
     fit-margin-right="0"
     fit-margin-bottom="0"
     units="px"
     inkscape:window-width="1366"
     inkscape:window-height="705"
     inkscape:window-x="-8"
     inkscape:window-y="-8"
     inkscape:window-maximized="1" />
  <metadata
     id="metadata7088">
    <rdf:RDF>
      <cc:Work
         rdf:about="">
        <dc:format>image/svg+xml</dc:format>
        <dc:type
           rdf:resource="http://purl.org/dc/dcmitype/StillImage" />
        <dc:title></dc:title>
      </cc:Work>
    </rdf:RDF>
  </metadata>
  <g
     inkscape:label="Layer 1"
     inkscape:groupmode="layer"
     id="layer1"
     transform="translate(-1020,-938.07649)">
    <g
       id="surface79376"
       transform="matrix(1.25,0,0,1.25,1020,938.07649)">
      <path
         id="path7634"
         d="M 64,32 C 64,49.671875 49.671875,64 32,64 14.328125,64 0,49.671875 0,32 0,14.328125 14.328125,0 32,0 49.671875,0 64,14.328125 64,32"
         style="fill:#75dcf8;fill-opacity:1;fill-rule:nonzero;stroke:none"
         inkscape:connector-curvature="0" />
      <path
         id="path7636"
         d="m 49.410156,52.269531 -34.820312,0 c -1.113281,0 -2.019531,-0.902343 -2.019531,-2.019531 l 0,-36.339844 c 0,-1.117187 0.90625,-2.019531 2.019531,-2.019531 l 31.960937,0 4.878907,2.589844 0,35.769531 c 0,1.117188 -0.90625,2.019531 -2.019532,2.019531"
         style="fill:#2e3d57;fill-opacity:1;fill-rule:nonzero;stroke:none"
         inkscape:connector-curvature="0" />
      <path
         id="path7638"
         d="m 40.246094,26.269531 -20.78125,0 c -1.335938,0 -2.417969,-1.082031 -2.417969,-2.417968 l 0,-11.960938 25.621094,0 0,11.960938 c 0,1.335937 -1.085938,2.417968 -2.421875,2.417968"
         style="fill:#19193a;fill-opacity:1;fill-rule:nonzero;stroke:none"
         inkscape:connector-curvature="0" />
      <path
         id="path7640"
         d="m 40.523438,26.332031 -15.332032,0 c -1.183593,0 -2.144531,-0.957031 -2.144531,-2.144531 l 0,-12.617187 19.621094,0 0,12.617187 c 0,1.1875 -0.960938,2.144531 -2.144531,2.144531"
         style="fill:#e6e6e6;fill-opacity:1;fill-rule:nonzero;stroke:none"
         inkscape:connector-curvature="0" />
      <path
         id="path7642"
         d="m 39.988281,25.105469 -2.953125,0 c -0.554687,0 -1,-0.449219 -1,-1 l 0,-9.621094 c 0,-0.550781 0.445313,-1 1,-1 l 2.953125,0 c 0.550782,0 1,0.449219 1,1 l 0,9.621094 c 0,0.550781 -0.449218,1 -1,1"
         style="fill:#19193a;fill-opacity:1;fill-rule:nonzero;stroke:none"
         inkscape:connector-curvature="0" />
      <path
         id="path7644"
         d="m 46.761719,52.269531 -29.523438,0 0,-20.902343 c 0,-0.921875 0.746094,-1.667969 1.667969,-1.667969 l 26.1875,0 c 0.921875,0 1.667969,0.746094 1.667969,1.667969 z m 0,0"
         style="fill:#19193a;fill-opacity:1;fill-rule:nonzero;stroke:none"
         inkscape:connector-curvature="0" />
      <path
         id="path7646"
         d="m 17.90625,50.199219 0,-18.1875 c 0,-0.871094 0.703125,-1.574219 1.570313,-1.574219 l 25.046875,0 c 0.867187,0 1.570312,0.703125 1.570312,1.574219 l 0,18.1875 c 0,0.871094 -0.703125,1.574219 -1.570312,1.574219 l -25.046875,0 c -0.867188,0 -1.570313,-0.703125 -1.570313,-1.574219"
         style="fill:#ffffff;fill-opacity:1;fill-rule:nonzero;stroke:none"
         inkscape:connector-curvature="0" />
      <path
         id="path7648"
         d="m 17.90625,50.199219 0,-2.949219 28.1875,0 0,2.949219 c 0,0.871094 -0.703125,1.574219 -1.570312,1.574219 l -25.046875,0 c -0.867188,0 -1.570313,-0.703125 -1.570313,-1.574219"
         style="fill:#f03f3a;fill-opacity:1;fill-rule:nonzero;stroke:none"
         inkscape:connector-curvature="0" />
      <path
         id="path7650"
         d="m 44.714844,34.257813 -25.429688,0 0,-0.621094 25.429688,0 z m 0,0"
         style="fill:#f03f3a;fill-opacity:1;fill-rule:nonzero;stroke:none"
         inkscape:connector-curvature="0" />
      <path
         id="path7652"
         d="m 44.714844,37.621094 -25.429688,0 0,-0.621094 25.429688,0 z m 0,0"
         style="fill:#f03f3a;fill-opacity:1;fill-rule:nonzero;stroke:none"
         inkscape:connector-curvature="0" />
      <path
         id="path7654"
         d="m 44.714844,40.988281 -25.429688,0 0,-0.621093 25.429688,0 z m 0,0"
         style="fill:#f03f3a;fill-opacity:1;fill-rule:nonzero;stroke:none"
         inkscape:connector-curvature="0" />
      <path
         id="path7656"
         d="m 44.714844,44.351563 -25.429688,0 0,-0.621094 25.429688,0 z m 0,0"
         style="fill:#f03f3a;fill-opacity:1;fill-rule:nonzero;stroke:none"
         inkscape:connector-curvature="0" />
    </g>
  </g>
</svg>
