<?xml version="1.0" encoding="UTF-8" standalone="no"?>
<!-- Created with Inkscape (http://www.inkscape.org/) -->

<svg
   xmlns:dc="http://purl.org/dc/elements/1.1/"
   xmlns:cc="http://creativecommons.org/ns#"
   xmlns:rdf="http://www.w3.org/1999/02/22-rdf-syntax-ns#"
   xmlns:svg="http://www.w3.org/2000/svg"
   xmlns="http://www.w3.org/2000/svg"
   xmlns:sodipodi="http://sodipodi.sourceforge.net/DTD/sodipodi-0.dtd"
   xmlns:inkscape="http://www.inkscape.org/namespaces/inkscape"
   width="80"
   height="80"
   viewBox="0 0 80 80"
   id="svg7083"
   version="1.1"
   inkscape:version="0.91 r13725"
   sodipodi:docname="savetext.svg">
  <defs
     id="defs7085" />
  <sodipodi:namedview
     id="base"
     pagecolor="#ffffff"
     bordercolor="#666666"
     borderopacity="1.0"
     inkscape:pageopacity="0.0"
     inkscape:pageshadow="2"
     inkscape:zoom="0.35355339"
     inkscape:cx="26.382072"
     inkscape:cy="28.591399"
     inkscape:document-units="px"
     inkscape:current-layer="layer1"
     showgrid="false"
     fit-margin-top="0"
     fit-margin-left="0"
     fit-margin-right="0"
     fit-margin-bottom="0"
     units="px"
     inkscape:window-width="1600"
     inkscape:window-height="1137"
     inkscape:window-x="-8"
     inkscape:window-y="-8"
     inkscape:window-maximized="1" />
  <metadata
     id="metadata7088">
    <rdf:RDF>
      <cc:Work
         rdf:about="">
        <dc:format>image/svg+xml</dc:format>
        <dc:type
           rdf:resource="http://purl.org/dc/dcmitype/StillImage" />
        <dc:title></dc:title>
      </cc:Work>
    </rdf:RDF>
  </metadata>
  <g
     inkscape:label="Layer 1"
     inkscape:groupmode="layer"
     id="layer1"
     transform="translate(-1020,-938.07649)">
    <path
       inkscape:connector-curvature="0"
       style="fill:#75dcf8;fill-opacity:1;fill-rule:nonzero;stroke:none"
       d="m 1100,978.07649 c 0,22.08981 -17.9102,40.00001 -40,40.00001 -22.0898,0 -40,-17.9102 -40,-40.00001 0,-22.08984 17.9102,-40 40,-40 22.0898,0 40,17.91016 40,40"
       id="path7634" />
    <path
       inkscape:connector-curvature="0"
       style="fill:#171f2c;fill-opacity:1;fill-rule:nonzero;stroke:none"
       d="m 1081.7627,1003.4134 -43.5254,0 c -1.3916,0 -2.5244,-1.1279 -2.5244,-2.5244 l 0,-45.42481 c 0,-1.39649 1.1328,-2.52442 2.5244,-2.52442 l 39.9512,0 6.0986,3.23731 0,44.71192 c 0,1.3965 -1.1328,2.5244 -2.5244,2.5244"
       id="path7636" />
    <path
       inkscape:connector-curvature="0"
       style="fill:#19193a;fill-opacity:1;fill-rule:nonzero;stroke:none"
       d="m 1070.3076,970.9134 -25.9765,0 c -1.67,0 -3.0225,-1.35253 -3.0225,-3.02246 l 0,-14.95117 32.0264,0 0,14.95117 c 0,1.66993 -1.3575,3.02246 -3.0274,3.02246"
       id="path7638" />
    <path
       inkscape:connector-curvature="0"
       style="fill:#e6e6e6;fill-opacity:1;fill-rule:nonzero;stroke:none"
       d="m 1070.6543,970.99153 -19.165,0 c -1.4795,0 -2.6807,-1.19629 -2.6807,-2.68066 l 0,-15.77149 24.5264,0 0,15.77149 c 0,1.48437 -1.2012,2.68066 -2.6807,2.68066"
       id="path7640" />
    <path
       inkscape:connector-curvature="0"
       style="fill:#19193a;fill-opacity:1;fill-rule:nonzero;stroke:none"
       d="m 1069.9854,969.45833 -3.6915,0 c -0.6933,0 -1.25,-0.56153 -1.25,-1.25 l 0,-12.02637 c 0,-0.68848 0.5567,-1.25 1.25,-1.25 l 3.6915,0 c 0.6884,0 1.25,0.56152 1.25,1.25 l 0,12.02637 c 0,0.68847 -0.5616,1.25 -1.25,1.25"
       id="path7642" />
    <path
       inkscape:connector-curvature="0"
       style="fill:#19193a;fill-opacity:1;fill-rule:nonzero;stroke:none"
       d="m 1078.4521,1003.4134 -36.9042,0 0,-26.12792 c 0,-1.15235 0.9326,-2.08497 2.0849,-2.08497 l 32.7344,0 c 1.1523,0 2.0849,0.93262 2.0849,2.08497 z m 0,0"
       id="path7644" />
    <path
       inkscape:connector-curvature="0"
       style="fill:#ffffff;fill-opacity:1;fill-rule:nonzero;stroke:none"
       d="m 1042.3828,1000.8255 0,-22.73436 c 0,-1.08887 0.8789,-1.96777 1.9629,-1.96777 l 31.3086,0 c 1.084,0 1.9629,0.8789 1.9629,1.96777 l 0,22.73436 c 0,1.0889 -0.8789,1.9678 -1.9629,1.9678 l -31.3086,0 c -1.084,0 -1.9629,-0.8789 -1.9629,-1.9678"
       id="path7646" />
    <path
       inkscape:connector-curvature="0"
       style="fill:#f03f3a;fill-opacity:1;fill-rule:nonzero;stroke:none"
       d="m 1042.3828,1000.8255 0,-3.68651 35.2344,0 0,3.68651 c 0,1.0889 -0.8789,1.9678 -1.9629,1.9678 l -31.3086,0 c -1.084,0 -1.9629,-0.8789 -1.9629,-1.9678"
       id="path7648" />
    <text
       xml:space="preserve"
       style="font-style:normal;font-variant:normal;font-weight:normal;font-stretch:normal;font-size:5px;line-height:125%;font-family:'KenPixel Nova';-inkscape-font-specification:'KenPixel Nova, Normal';text-align:start;letter-spacing:0px;word-spacing:0px;writing-mode:lr-tb;text-anchor:start;fill:#000000;fill-opacity:1;stroke:none;stroke-width:1px;stroke-linecap:butt;stroke-linejoin:miter;stroke-opacity:1"
       x="992.72589"
       y="1004.9445"
       id="text4158"
       sodipodi:linespacing="125%"><tspan
         sodipodi:role="line"
         id="tspan4160"
         x="992.72589"
         y="1004.9445" /></text>
    <text
       xml:space="preserve"
       style="font-style:normal;font-variant:normal;font-weight:normal;font-stretch:normal;font-size:30px;line-height:125%;font-family:'KenPixel Nova';-inkscape-font-specification:'KenPixel Nova, Normal';text-align:start;letter-spacing:0px;word-spacing:0px;writing-mode:lr-tb;text-anchor:start;fill:#171f2c;fill-opacity:1;stroke:none;stroke-width:1px;stroke-linecap:butt;stroke-linejoin:miter;stroke-opacity:1"
       x="1045.9375"
       y="993.32776"
       id="text4174"
       sodipodi:linespacing="125%"><tspan
         sodipodi:role="line"
         id="tspan4176"
         x="1045.9375"
         y="993.32776">txt</tspan></text>
  </g>
</svg>
